<svg width="66" height="66" viewBox="0 0 66 66" fill="none" xmlns="http://www.w3.org/2000/svg">
<path d="M33 52.25C33.5439 52.25 34.0756 52.0887 34.5278 51.7865C34.9801 51.4844 35.3325 51.0549 35.5407 50.5524C35.7488 50.0499 35.8033 49.4969 35.6972 48.9635C35.5911 48.43 35.3291 47.94 34.9445 47.5555C34.5599 47.1709 34.0699 46.909 33.5365 46.8028C33.003 46.6967 32.4501 46.7512 31.9476 46.9593C31.4451 47.1675 31.0156 47.5199 30.7135 47.9722C30.4113 48.4244 30.25 48.9561 30.25 49.5C30.25 50.2293 30.5397 50.9288 31.0555 51.4445C31.5712 51.9603 32.2707 52.25 33 52.25ZM46.75 52.25C47.2939 52.25 47.8256 52.0887 48.2778 51.7865C48.7301 51.4844 49.0825 51.0549 49.2907 50.5524C49.4988 50.0499 49.5533 49.4969 49.4472 48.9635C49.341 48.43 49.0791 47.94 48.6945 47.5555C48.31 47.1709 47.82 46.909 47.2865 46.8028C46.7531 46.6967 46.2001 46.7512 45.6976 46.9593C45.1951 47.1675 44.7656 47.5199 44.4635 47.9722C44.1613 48.4244 44 48.9561 44 49.5C44 50.2293 44.2897 50.9288 44.8055 51.4445C45.3212 51.9603 46.0207 52.25 46.75 52.25ZM46.75 41.25C47.2939 41.25 47.8256 41.0887 48.2778 40.7865C48.7301 40.4844 49.0825 40.0549 49.2907 39.5524C49.4988 39.0499 49.5533 38.4969 49.4472 37.9635C49.341 37.4301 49.0791 36.9401 48.6945 36.5555C48.31 36.1709 47.82 35.909 47.2865 35.8028C46.7531 35.6967 46.2001 35.7512 45.6976 35.9593C45.1951 36.1675 44.7656 36.5199 44.4635 36.9722C44.1613 37.4244 44 37.9561 44 38.5C44 39.2293 44.2897 39.9288 44.8055 40.4445C45.3212 40.9603 46.0207 41.25 46.75 41.25ZM33 41.25C33.5439 41.25 34.0756 41.0887 34.5278 40.7865C34.9801 40.4844 35.3325 40.0549 35.5407 39.5524C35.7488 39.0499 35.8033 38.4969 35.6972 37.9635C35.5911 37.4301 35.3291 36.9401 34.9445 36.5555C34.5599 36.1709 34.0699 35.909 33.5365 35.8028C33.003 35.6967 32.4501 35.7512 31.9476 35.9593C31.4451 36.1675 31.0156 36.5199 30.7135 36.9722C30.4113 37.4244 30.25 37.9561 30.25 38.5C30.25 39.2293 30.5397 39.9288 31.0555 40.4445C31.5712 40.9603 32.2707 41.25 33 41.25ZM52.25 8.25H49.5V5.5C49.5 4.77065 49.2103 4.07118 48.6945 3.55546C48.1788 3.03973 47.4793 2.75 46.75 2.75C46.0207 2.75 45.3212 3.03973 44.8055 3.55546C44.2897 4.07118 44 4.77065 44 5.5V8.25H22V5.5C22 4.77065 21.7103 4.07118 21.1945 3.55546C20.6788 3.03973 19.9793 2.75 19.25 2.75C18.5207 2.75 17.8212 3.03973 17.3055 3.55546C16.7897 4.07118 16.5 4.77065 16.5 5.5V8.25H13.75C11.562 8.25 9.46354 9.11919 7.91637 10.6664C6.36919 12.2135 5.5 14.312 5.5 16.5V55C5.5 57.188 6.36919 59.2865 7.91637 60.8336C9.46354 62.3808 11.562 63.25 13.75 63.25H52.25C54.438 63.25 56.5365 62.3808 58.0836 60.8336C59.6308 59.2865 60.5 57.188 60.5 55V16.5C60.5 14.312 59.6308 12.2135 58.0836 10.6664C56.5365 9.11919 54.438 8.25 52.25 8.25ZM55 55C55 55.7293 54.7103 56.4288 54.1945 56.9445C53.6788 57.4603 52.9793 57.75 52.25 57.75H13.75C13.0207 57.75 12.3212 57.4603 11.8055 56.9445C11.2897 56.4288 11 55.7293 11 55V30.25H55V55ZM55 24.75H11V16.5C11 15.7707 11.2897 15.0712 11.8055 14.5555C12.3212 14.0397 13.0207 13.75 13.75 13.75H16.5V16.5C16.5 17.2293 16.7897 17.9288 17.3055 18.4445C17.8212 18.9603 18.5207 19.25 19.25 19.25C19.9793 19.25 20.6788 18.9603 21.1945 18.4445C21.7103 17.9288 22 17.2293 22 16.5V13.75H44V16.5C44 17.2293 44.2897 17.9288 44.8055 18.4445C45.3212 18.9603 46.0207 19.25 46.75 19.25C47.4793 19.25 48.1788 18.9603 48.6945 18.4445C49.2103 17.9288 49.5 17.2293 49.5 16.5V13.75H52.25C52.9793 13.75 53.6788 14.0397 54.1945 14.5555C54.7103 15.0712 55 15.7707 55 16.5V24.75ZM19.25 41.25C19.7939 41.25 20.3256 41.0887 20.7778 40.7865C21.2301 40.4844 21.5825 40.0549 21.7907 39.5524C21.9988 39.0499 22.0533 38.4969 21.9472 37.9635C21.8411 37.4301 21.5791 36.9401 21.1945 36.5555C20.8099 36.1709 20.3199 35.909 19.7865 35.8028C19.2531 35.6967 18.7001 35.7512 18.1976 35.9593C17.6951 36.1675 17.2656 36.5199 16.9635 36.9722C16.6613 37.4244 16.5 37.9561 16.5 38.5C16.5 39.2293 16.7897 39.9288 17.3055 40.4445C17.8212 40.9603 18.5207 41.25 19.25 41.25ZM19.25 52.25C19.7939 52.25 20.3256 52.0887 20.7778 51.7865C21.2301 51.4844 21.5825 51.0549 21.7907 50.5524C21.9988 50.0499 22.0533 49.4969 21.9472 48.9635C21.8411 48.43 21.5791 47.94 21.1945 47.5555C20.8099 47.1709 20.3199 46.909 19.7865 46.8028C19.2531 46.6967 18.7001 46.7512 18.1976 46.9593C17.6951 47.1675 17.2656 47.5199 16.9635 47.9722C16.6613 48.4244 16.5 48.9561 16.5 49.5C16.5 50.2293 16.7897 50.9288 17.3055 51.4445C17.8212 51.9603 18.5207 52.25 19.25 52.25Z" fill="#834740"/>
<path d="M33 52.25C33.5439 52.25 34.0756 52.0887 34.5278 51.7865C34.9801 51.4844 35.3325 51.0549 35.5407 50.5524C35.7488 50.0499 35.8033 49.4969 35.6972 48.9635C35.5911 48.43 35.3291 47.94 34.9445 47.5555C34.5599 47.1709 34.0699 46.909 33.5365 46.8028C33.003 46.6967 32.4501 46.7512 31.9476 46.9593C31.4451 47.1675 31.0156 47.5199 30.7135 47.9722C30.4113 48.4244 30.25 48.9561 30.25 49.5C30.25 50.2293 30.5397 50.9288 31.0555 51.4445C31.5712 51.9603 32.2707 52.25 33 52.25ZM46.75 52.25C47.2939 52.25 47.8256 52.0887 48.2778 51.7865C48.7301 51.4844 49.0825 51.0549 49.2907 50.5524C49.4988 50.0499 49.5533 49.4969 49.4472 48.9635C49.341 48.43 49.0791 47.94 48.6945 47.5555C48.31 47.1709 47.82 46.909 47.2865 46.8028C46.7531 46.6967 46.2001 46.7512 45.6976 46.9593C45.1951 47.1675 44.7656 47.5199 44.4635 47.9722C44.1613 48.4244 44 48.9561 44 49.5C44 50.2293 44.2897 50.9288 44.8055 51.4445C45.3212 51.9603 46.0207 52.25 46.75 52.25ZM46.75 41.25C47.2939 41.25 47.8256 41.0887 48.2778 40.7865C48.7301 40.4844 49.0825 40.0549 49.2907 39.5524C49.4988 39.0499 49.5533 38.4969 49.4472 37.9635C49.341 37.4301 49.0791 36.9401 48.6945 36.5555C48.31 36.1709 47.82 35.909 47.2865 35.8028C46.7531 35.6967 46.2001 35.7512 45.6976 35.9593C45.1951 36.1675 44.7656 36.5199 44.4635 36.9722C44.1613 37.4244 44 37.9561 44 38.5C44 39.2293 44.2897 39.9288 44.8055 40.4445C45.3212 40.9603 46.0207 41.25 46.75 41.25ZM33 41.25C33.5439 41.25 34.0756 41.0887 34.5278 40.7865C34.9801 40.4844 35.3325 40.0549 35.5407 39.5524C35.7488 39.0499 35.8033 38.4969 35.6972 37.9635C35.5911 37.4301 35.3291 36.9401 34.9445 36.5555C34.5599 36.1709 34.0699 35.909 33.5365 35.8028C33.003 35.6967 32.4501 35.7512 31.9476 35.9593C31.4451 36.1675 31.0156 36.5199 30.7135 36.9722C30.4113 37.4244 30.25 37.9561 30.25 38.5C30.25 39.2293 30.5397 39.9288 31.0555 40.4445C31.5712 40.9603 32.2707 41.25 33 41.25ZM52.25 8.25H49.5V5.5C49.5 4.77065 49.2103 4.07118 48.6945 3.55546C48.1788 3.03973 47.4793 2.75 46.75 2.75C46.0207 2.75 45.3212 3.03973 44.8055 3.55546C44.2897 4.07118 44 4.77065 44 5.5V8.25H22V5.5C22 4.77065 21.7103 4.07118 21.1945 3.55546C20.6788 3.03973 19.9793 2.75 19.25 2.75C18.5207 2.75 17.8212 3.03973 17.3055 3.55546C16.7897 4.07118 16.5 4.77065 16.5 5.5V8.25H13.75C11.562 8.25 9.46354 9.11919 7.91637 10.6664C6.36919 12.2135 5.5 14.312 5.5 16.5V55C5.5 57.188 6.36919 59.2865 7.91637 60.8336C9.46354 62.3808 11.562 63.25 13.75 63.25H52.25C54.438 63.25 56.5365 62.3808 58.0836 60.8336C59.6308 59.2865 60.5 57.188 60.5 55V16.5C60.5 14.312 59.6308 12.2135 58.0836 10.6664C56.5365 9.11919 54.438 8.25 52.25 8.25ZM55 55C55 55.7293 54.7103 56.4288 54.1945 56.9445C53.6788 57.4603 52.9793 57.75 52.25 57.75H13.75C13.0207 57.75 12.3212 57.4603 11.8055 56.9445C11.2897 56.4288 11 55.7293 11 55V30.25H55V55ZM55 24.75H11V16.5C11 15.7707 11.2897 15.0712 11.8055 14.5555C12.3212 14.0397 13.0207 13.75 13.75 13.75H16.5V16.5C16.5 17.2293 16.7897 17.9288 17.3055 18.4445C17.8212 18.9603 18.5207 19.25 19.25 19.25C19.9793 19.25 20.6788 18.9603 21.1945 18.4445C21.7103 17.9288 22 17.2293 22 16.5V13.75H44V16.5C44 17.2293 44.2897 17.9288 44.8055 18.4445C45.3212 18.9603 46.0207 19.25 46.75 19.25C47.4793 19.25 48.1788 18.9603 48.6945 18.4445C49.2103 17.9288 49.5 17.2293 49.5 16.5V13.75H52.25C52.9793 13.75 53.6788 14.0397 54.1945 14.5555C54.7103 15.0712 55 15.7707 55 16.5V24.75ZM19.25 41.25C19.7939 41.25 20.3256 41.0887 20.7778 40.7865C21.2301 40.4844 21.5825 40.0549 21.7907 39.5524C21.9988 39.0499 22.0533 38.4969 21.9472 37.9635C21.8411 37.4301 21.5791 36.9401 21.1945 36.5555C20.8099 36.1709 20.3199 35.909 19.7865 35.8028C19.2531 35.6967 18.7001 35.7512 18.1976 35.9593C17.6951 36.1675 17.2656 36.5199 16.9635 36.9722C16.6613 37.4244 16.5 37.9561 16.5 38.5C16.5 39.2293 16.7897 39.9288 17.3055 40.4445C17.8212 40.9603 18.5207 41.25 19.25 41.25ZM19.25 52.25C19.7939 52.25 20.3256 52.0887 20.7778 51.7865C21.2301 51.4844 21.5825 51.0549 21.7907 50.5524C21.9988 50.0499 22.0533 49.4969 21.9472 48.9635C21.8411 48.43 21.5791 47.94 21.1945 47.5555C20.8099 47.1709 20.3199 46.909 19.7865 46.8028C19.2531 46.6967 18.7001 46.7512 18.1976 46.9593C17.6951 47.1675 17.2656 47.5199 16.9635 47.9722C16.6613 48.4244 16.5 48.9561 16.5 49.5C16.5 50.2293 16.7897 50.9288 17.3055 51.4445C17.8212 51.9603 18.5207 52.25 19.25 52.25Z" fill="black" fill-opacity="0.2"/>
</svg>
