<?xml version="1.0" encoding="UTF-8" standalone="no"?><!DOCTYPE svg PUBLIC "-//W3C//DTD SVG 1.1//EN" "http://www.w3.org/Graphics/SVG/1.1/DTD/svg11.dtd"><svg width="100%" height="100%" viewBox="0 0 961 334" version="1.1" xmlns="http://www.w3.org/2000/svg" xmlns:xlink="http://www.w3.org/1999/xlink" xml:space="preserve" xmlns:serif="http://www.serif.com/" style="fill-rule:evenodd;clip-rule:evenodd;stroke-linejoin:round;stroke-miterlimit:2;"><g><path d="M45.196,178.001c-40.425,-59.747 -9.91,-149.112 66.253,-153.822c41.137,-2.543 84.44,34.91 71.847,78.032c-5.141,17.596 -22.982,34.121 -42.335,32.353c-9.644,-0.885 -2.481,-9.56 -0.49,-14.288c6.581,-15.619 6.975,-34.762 -12.229,-40.544c-20.937,-6.3 -40.515,10.097 -41.29,31.26c-1.25,34.153 30.125,50.14 60.609,47.769c58.735,-4.566 83.872,-69.166 52.925,-116.547c-21.412,-32.785 -59.962,-45.088 -97.915,-41.66c-52.019,4.7 -98.425,51.575 -102.172,103.807c-4.15,57.859 24.456,103.318 69.325,129.965l19.437,-16.906c-17.09,-9.294 -32.209,-22.044 -43.965,-39.419" style="fill:#81463e;fill-rule:nonzero;"/><path d="M69.723,234.326c0.816,0.485 1.635,0.963 2.46,1.435c14.034,8.012 29.587,14.228 46.181,18.443c44.384,11.278 87.525,9.385 130.141,1.694c-2.075,-1.469 -4.047,-4.15 -5.116,-8.987c-0.697,-3.15 -1.209,-6.535 -1.556,-10.116c-21.685,3.097 -43.663,4.447 -66.15,2.9c-29.203,-2.009 -58.635,-7.803 -83.969,-20.925c-0.853,-0.441 -1.706,-0.891 -2.553,-1.35l-19.438,16.906Z" style="fill:url(#_Linear1);fill-rule:nonzero;"/><path d="M263.698,233.107c1.219,8.266 4.919,14.216 8.207,18.019c47.696,-10.756 94.893,-27.125 142.6,-38.656c-0.707,-1.331 -1.197,-2.781 -1.404,-4.353c-0.546,-4.188 0.604,-8.541 3.41,-12.994c-51.516,10.338 -101.516,28.069 -152.813,37.984Z" style="fill:url(#_Linear2);fill-rule:nonzero;"/><path d="M458.939,188.479c-0.456,0.828 -0.928,1.663 -1.428,2.503c-2.969,5.166 -6.394,10.007 -10.185,14.457c9.482,-1.732 18.988,-3.185 28.535,-4.275c57.706,-6.582 114.934,-2.403 172.056,6.793c70.175,11.3 139.338,25.525 210.856,25.054c3.947,-0.025 8.866,0.025 13.7,0.075c7.147,0.071 14.11,0.143 17.457,-0.025c25.821,-1.31 33.093,-2.782 41.462,-3.819c6.359,-0.791 19.747,-3.385 26.947,-5.781c1.487,-0.5 3.987,-2.038 1.766,-2.344c-1.55,-0.213 -12.125,2.719 -14.885,3.203c-26.744,4.687 -55.994,6.609 -83.119,5.875c-71.765,-1.938 -139.884,-18.684 -209.912,-31.741c-44.663,-8.325 -88.309,-13.406 -132.178,-13.406c-20.269,0 -40.578,1.084 -61.072,3.431Z" style="fill:url(#_Linear3);fill-rule:nonzero;"/><path d="M568.52,244.893c-2.29,-2.359 -4.709,-3.672 -7.253,-3.934c-3.062,-0.319 -5.778,0.597 -8.159,2.747c-2.416,2.15 -3.797,4.921 -4.153,8.328c-0.369,3.543 0.318,6.95 2.065,10.225c1.678,3.234 4.328,6.172 7.947,8.806c5.788,4.147 11.709,6.537 17.763,7.166c2.409,0.25 4.9,0.181 7.478,-0.213c2.678,-0.347 4.965,-0.944 6.859,-1.787c0.947,-0.425 1.438,-0.635 1.475,-0.632l0.609,-0.35c0.116,-0.093 0.704,-0.415 1.769,-0.962c1.103,-0.581 2.353,-1.547 3.744,-2.897c2.966,-2.784 4.622,-5.844 4.969,-9.181c0.256,-2.475 -0.316,-4.988 -1.719,-7.532c-1.494,-2.656 -3.988,-5.609 -7.472,-8.859l-3.459,-3.331c-1.797,-1.75 -3.444,-3.503 -4.928,-5.256c-1.272,-1.457 -2.382,-3.016 -3.319,-4.675c-0.885,-1.516 -1.466,-2.932 -1.747,-4.247c-0.278,-1.353 -0.344,-2.713 -0.2,-4.091c0.316,-3.025 1.519,-5.594 3.619,-7.703c2.103,-2.181 4.872,-3.734 8.303,-4.666c3.472,-0.956 7.356,-1.212 11.656,-0.765c2.544,0.262 4.991,0.815 7.338,1.65c2.178,0.784 4.14,1.787 5.89,3.012c1.647,1.181 2.885,2.491 3.71,3.931c0.818,1.479 1.146,3.007 0.984,4.588c-0.159,1.509 -0.841,2.709 -2.047,3.594c-1.203,0.881 -2.681,1.231 -4.434,1.05c-1.547,-0.163 -2.822,-0.625 -3.819,-1.391c-0.391,-0.247 -0.572,-0.494 -0.55,-0.734c0.016,-0.138 0.194,-0.344 0.534,-0.622l0.11,-0.066l0.112,-0.065l0.116,-0.094l0.237,0.231c1.182,0.994 2.497,1.566 3.941,1.716c0.994,0.103 1.853,-0.119 2.572,-0.672c0.678,-0.519 1.069,-1.263 1.169,-2.222c0.187,-1.791 -0.51,-3.616 -2.088,-5.484c-1.512,-1.829 -3.675,-3.441 -6.481,-4.847c-2.781,-1.332 -5.635,-2.15 -8.556,-2.457c-2.579,-0.268 -5.035,-0.225 -7.366,0.122c-2.256,0.319 -4.266,0.928 -6.031,1.822c-1.728,0.935 -3.1,2.075 -4.11,3.431c-1.05,1.422 -1.668,3.025 -1.856,4.813c-0.216,2.097 0.266,4.284 1.453,6.562c1.16,2.244 3.166,4.832 6.022,7.772l7.925,8.022c2.734,2.785 4.666,5.438 5.794,7.953c1.156,2.588 1.594,5.207 1.322,7.853c-0.407,3.888 -2.128,7.391 -5.163,10.519c-3.075,3.156 -7,5.472 -11.778,6.96c-4.747,1.518 -9.787,2.003 -15.116,1.45c-4.059,-0.422 -7.868,-1.394 -11.428,-2.913c-3.462,-1.472 -6.478,-3.384 -9.05,-5.737c-2.478,-2.238 -4.309,-4.847 -5.493,-7.819c-1.197,-2.869 -1.625,-5.922 -1.288,-9.153c0.3,-2.891 1.153,-5.425 2.563,-7.607c1.45,-2.25 3.259,-3.918 5.425,-5.015c2.231,-1.091 4.568,-1.506 7.012,-1.25c1.784,0.184 3.403,0.684 4.85,1.494c1.475,0.812 2.175,1.615 2.094,2.409c-0.01,0.1 -0.131,0.437 -0.366,1.003" style="fill:#dca295;fill-rule:nonzero;"/><path d="M610.46,213.205c0.525,0.212 1.046,0.446 1.562,0.693c2.919,1.46 5.191,3.163 6.769,5.069c1.719,2.038 2.487,4.094 2.278,6.109c-0.031,0.294 -0.084,0.572 -0.159,0.835c0.293,-0.506 0.471,-1.081 0.54,-1.735c0.147,-1.415 -0.14,-2.753 -0.881,-4.09c-0.753,-1.316 -1.922,-2.547 -3.463,-3.653c-1.678,-1.172 -3.593,-2.153 -5.687,-2.903c-0.319,-0.116 -0.638,-0.222 -0.959,-0.325m-25.869,4.343c-1.697,1.882 -2.691,4.15 -2.963,6.757c-0.134,1.287 -0.072,2.575 0.188,3.834c0.259,1.219 0.812,2.562 1.647,3.991c0.912,1.612 1.997,3.137 3.225,4.546c1.468,1.732 3.109,3.479 4.884,5.207l3.453,3.328c3.528,3.287 6.097,6.337 7.625,9.056c1.485,2.691 2.097,5.391 1.822,8.031c-0.216,2.072 -0.912,4.057 -2.084,5.935c1.725,-2.391 2.74,-4.994 3.031,-7.766c0.259,-2.487 -0.163,-4.984 -1.253,-7.425c-1.081,-2.412 -2.975,-5.006 -5.625,-7.706l-7.922,-8.019c-2.906,-2.991 -4.981,-5.672 -6.172,-7.978c-1.256,-2.413 -1.775,-4.778 -1.544,-7.034c0.182,-1.738 0.75,-3.335 1.688,-4.757m-36.45,34.182c-0.163,0.715 -0.281,1.453 -0.363,2.215c-0.318,3.078 0.094,6.019 1.232,8.741c1.131,2.85 2.906,5.378 5.281,7.522c2.49,2.278 5.453,4.156 8.812,5.587c3.122,1.331 6.485,2.241 10.016,2.71c-4.972,-1.082 -9.884,-3.344 -14.644,-6.757c-3.712,-2.703 -6.472,-5.762 -8.203,-9.1c-1.816,-3.403 -2.541,-7.006 -2.156,-10.703l0.025,-0.215Zm30.237,28.812c-1.403,0 -2.825,-0.072 -4.262,-0.222c-4.128,-0.431 -8.056,-1.431 -11.675,-2.975c-3.531,-1.503 -6.656,-3.484 -9.285,-5.89c-2.562,-2.316 -4.484,-5.054 -5.709,-8.132c-1.241,-2.975 -1.694,-6.193 -1.344,-9.553c0.313,-3.006 1.219,-5.69 2.694,-7.975c1.522,-2.362 3.459,-4.15 5.753,-5.309c2.372,-1.16 4.881,-1.606 7.478,-1.338c1.894,0.197 3.635,0.735 5.175,1.597c0.666,0.366 2.703,1.488 2.522,3.231c-0.015,0.147 -0.056,0.347 -0.425,1.238l-0.49,1.187l-0.894,-0.918c-2.138,-2.203 -4.406,-3.444 -6.738,-3.685c-2.843,-0.293 -5.29,0.535 -7.506,2.535c-2.275,2.025 -3.544,4.572 -3.878,7.787c-0.35,3.356 0.312,6.635 1.969,9.744c1.615,3.109 4.203,5.972 7.7,8.519c5.634,4.037 11.475,6.4 17.353,7.012c2.328,0.241 4.772,0.169 7.265,-0.209c2.604,-0.338 4.832,-0.919 6.641,-1.725c0.953,-0.425 1.353,-0.6 1.572,-0.669l0.334,-0.203c0.116,-0.097 0.35,-0.25 1.903,-1.053c1.025,-0.538 2.219,-1.463 3.547,-2.75c2.81,-2.641 4.394,-5.553 4.719,-8.663c0.234,-2.29 -0.309,-4.659 -1.619,-7.037c-1.44,-2.56 -3.903,-5.472 -7.309,-8.65l-3.469,-3.341c-1.819,-1.769 -3.494,-3.556 -4.99,-5.322c-1.294,-1.481 -2.447,-3.103 -3.41,-4.803c-0.915,-1.572 -1.537,-3.087 -1.837,-4.484c-0.294,-1.435 -0.363,-2.897 -0.213,-4.353c0.338,-3.213 1.635,-5.975 3.86,-8.213c2.19,-2.269 5.115,-3.915 8.681,-4.881c3.556,-0.978 7.581,-1.247 11.962,-0.794c2.597,0.269 5.132,0.838 7.535,1.697c2.234,0.8 4.284,1.85 6.09,3.113c1.753,1.256 3.082,2.668 3.96,4.206c0.906,1.634 1.272,3.344 1.087,5.09c-0.181,1.754 -0.984,3.16 -2.381,4.188c-1.372,1.006 -3.066,1.416 -5.025,1.209c-1.697,-0.178 -3.125,-0.703 -4.244,-1.559c-0.784,-0.497 -0.912,-1.091 -0.872,-1.491c0.041,-0.393 0.285,-0.737 0.835,-1.187l0.897,-0.625l0.803,0.684c0.997,0.831 2.168,1.344 3.437,1.475c0.781,0.078 1.425,-0.081 1.975,-0.5c0.491,-0.378 0.766,-0.915 0.844,-1.644c0.159,-1.54 -0.478,-3.175 -1.894,-4.853c-1.437,-1.731 -3.525,-3.29 -6.219,-4.637c-2.665,-1.275 -5.45,-2.075 -8.262,-2.369c-2.494,-0.256 -4.9,-0.222 -7.156,0.116c-2.157,0.306 -4.097,0.893 -5.772,1.743c-1.594,0.857 -2.885,1.932 -3.819,3.179c-0.962,1.309 -1.519,2.746 -1.691,4.4c-0.2,1.918 0.26,3.965 1.363,6.084c1.116,2.162 3.094,4.709 5.878,7.572l7.919,8.015c2.794,2.847 4.8,5.607 5.965,8.204c1.21,2.712 1.679,5.503 1.388,8.287c-0.422,4.056 -2.238,7.766 -5.394,11.019c-3.159,3.237 -7.24,5.653 -12.131,7.175c-3.55,1.137 -7.3,1.706 -11.191,1.706" style="fill:#dca295;fill-rule:nonzero;"/><path d="M636.258,265.207l-0.122,-0.643c2.775,-1.163 4.29,-2.719 4.553,-4.672c0.172,-1.269 -0.194,-2.313 -1.097,-3.131c-0.903,-0.785 -2.281,-1.304 -4.134,-1.55c-2.672,-0.36 -5.694,0.087 -9.075,1.34c-3.447,1.247 -6.435,2.972 -8.966,5.175c-1.816,1.572 -3.287,3.169 -4.416,4.797c-1.162,1.656 -1.825,3.084 -1.984,4.284c-0.166,1.2 0.091,2.175 0.753,2.925c0.625,0.819 1.5,1.304 2.631,1.457c2.091,0.281 4.766,-0.682 8.032,-2.897c3.259,-2.21 6.328,-5.166 9.2,-8.86c0.584,-0.2 1.047,-0.278 1.39,-0.231c0.375,0.05 0.753,0.363 1.132,0.938c-3.063,3.809 -4.791,7.203 -5.194,10.187c-0.141,1.025 0.009,1.866 0.444,2.516c0.396,0.684 1.025,1.081 1.881,1.197c1.884,0.253 5.125,-1.141 9.722,-4.185c3.184,-2.153 6.093,-4.325 8.728,-6.515l1.425,-1.275c1.065,-0.903 1.7,-1.341 1.906,-1.313c0.272,0.038 0.391,0.21 0.347,0.519c-0.041,0.309 -1.138,1.328 -3.291,3.059c-2.828,2.344 -5.762,4.582 -8.806,6.716c-2.772,1.931 -5.156,3.319 -7.153,4.166c-2.038,0.878 -3.656,1.234 -4.856,1.071c-1.232,-0.162 -2.163,-0.781 -2.788,-1.84c-0.653,-1.097 -0.881,-2.385 -0.681,-3.86c0.128,-0.956 0.522,-2.459 1.181,-4.496l-0.822,0.671c-6.381,5.144 -11.437,7.463 -15.172,6.96c-1.337,-0.181 -2.325,-0.75 -2.962,-1.706c-0.713,-0.938 -0.969,-2.119 -0.778,-3.56c0.209,-1.544 0.922,-3.19 2.134,-4.947c1.219,-1.825 2.778,-3.55 4.672,-5.178c1.9,-1.662 3.938,-3.081 6.122,-4.25c2.9,-1.6 5.847,-2.753 8.837,-3.469c3.032,-0.74 5.66,-0.962 7.888,-0.662c2.259,0.303 3.925,0.912 4.987,1.822c1.063,0.909 1.497,2.103 1.297,3.575c-0.378,2.812 -2.7,4.765 -6.965,5.865" style="fill:#dca295;fill-rule:nonzero;"/><path d="M638.296,255.043c0.731,0.288 1.353,0.65 1.85,1.085c1.113,1.009 1.588,2.343 1.378,3.878c-0.112,0.828 -0.412,1.597 -0.9,2.3c1.019,-0.847 1.603,-1.869 1.766,-3.075c0.159,-1.197 -0.159,-2.094 -1.013,-2.825c-0.696,-0.594 -1.731,-1.053 -3.081,-1.363m-22.109,6.65c-0.525,0.407 -1.038,0.828 -1.538,1.269c-1.837,1.578 -3.359,3.263 -4.531,5.013c-1.134,1.65 -1.806,3.19 -1.997,4.59c-0.162,1.216 0.038,2.178 0.616,2.935c0.531,0.796 1.309,1.234 2.4,1.381c1.49,0.197 3.237,-0.103 5.231,-0.903c-0.731,0.118 -1.425,0.134 -2.078,0.043c-1.356,-0.181 -2.431,-0.781 -3.191,-1.778c-0.793,-0.89 -1.115,-2.103 -0.918,-3.55c0.178,-1.343 0.878,-2.868 2.134,-4.653c1.012,-1.462 2.312,-2.922 3.872,-4.347m12.294,6.625l-0.66,2.028c-0.637,1.966 -1.022,3.432 -1.147,4.35c-0.175,1.294 0.013,2.379 0.572,3.316c0.491,0.838 1.203,1.306 2.175,1.438c0.885,0.112 2.106,-0.113 3.622,-0.691c-0.706,0.147 -1.325,0.191 -1.869,0.116c-1.109,-0.15 -1.972,-0.707 -2.497,-1.61c-0.525,-0.775 -0.718,-1.819 -0.55,-3.053c0.4,-2.978 2.063,-6.362 4.947,-10.069l-0.159,-0.103c-0.094,-0.015 -0.316,-0.019 -0.775,0.116c-1.184,1.506 -2.406,2.894 -3.659,4.162m1.428,12.847l-0.713,-0.047c-1.497,-0.2 -2.64,-0.956 -3.4,-2.247c-0.75,-1.256 -1.019,-2.737 -0.794,-4.4c0.075,-0.534 0.219,-1.218 0.441,-2.046c-6.019,4.628 -10.787,6.634 -14.528,6.128c-1.581,-0.213 -2.775,-0.91 -3.553,-2.075c-0.816,-1.072 -1.131,-2.478 -0.91,-4.141c0.225,-1.666 0.991,-3.45 2.275,-5.312c1.247,-1.866 2.869,-3.663 4.816,-5.338c1.941,-1.697 4.053,-3.162 6.272,-4.353c2.941,-1.622 5.984,-2.816 9.041,-3.544c3.112,-0.762 5.871,-0.994 8.196,-0.678c2.447,0.328 4.222,0.988 5.425,2.016c1.288,1.106 1.819,2.562 1.582,4.328c-0.425,3.169 -2.978,5.378 -7.591,6.569l-0.869,0.225l-0.418,-2.2l0.631,-0.263c2.497,-1.047 3.822,-2.356 4.044,-4.006c0.134,-1 -0.129,-1.76 -0.829,-2.394c-0.762,-0.662 -2.003,-1.116 -3.681,-1.341c-2.522,-0.346 -5.437,0.097 -8.669,1.294c-3.337,1.21 -6.265,2.897 -8.706,5.022c-1.756,1.522 -3.197,3.084 -4.275,4.641c-1.084,1.543 -1.703,2.859 -1.844,3.915c-0.131,0.953 0.05,1.691 0.55,2.257c0.525,0.687 1.204,1.056 2.113,1.178c1.872,0.253 4.375,-0.675 7.444,-2.76c3.168,-2.147 6.2,-5.065 9.009,-8.678l0.153,-0.197l0.238,-0.081c0.718,-0.25 1.309,-0.337 1.781,-0.269c0.628,0.082 1.191,0.51 1.719,1.307l0.337,0.515l-0.384,0.478c-2.95,3.669 -4.635,6.957 -5.016,9.769c-0.109,0.813 -0.006,1.466 0.31,1.938c0.293,0.5 0.693,0.75 1.293,0.831c1.153,0.147 3.666,-0.428 9.144,-4.053c3.153,-2.135 6.066,-4.31 8.653,-6.463l1.403,-1.253c1.635,-1.387 2.132,-1.584 2.588,-1.519c0.437,0.06 0.697,0.285 0.831,0.466c0.144,0.187 0.3,0.512 0.231,1.003c-0.053,0.403 -0.106,0.788 -3.597,3.6c-2.84,2.353 -5.821,4.625 -8.85,6.75c-2.806,1.953 -5.262,3.381 -7.309,4.25c-1.831,0.788 -3.341,1.178 -4.584,1.178" style="fill:#dca295;fill-rule:nonzero;"/><path d="M663.525,266.791l0.462,0.069c1.334,0.187 2.619,-0.134 3.856,-0.972c1.197,-0.806 1.885,-1.828 2.06,-3.059c0.112,-0.788 -0.138,-1.485 -0.747,-2.097c-0.578,-0.606 -1.466,-0.994 -2.666,-1.166c-1.059,-0.15 -2.35,-0.037 -3.872,0.341c-1.443,0.353 -2.95,0.978 -4.509,1.872c-1.559,0.893 -2.922,1.887 -4.091,2.978c-1.415,1.372 -2.653,2.922 -3.703,4.659c-1,1.638 -1.606,3.213 -1.822,4.716c-0.272,1.919 0.069,3.556 1.028,4.915c0.919,1.388 2.216,2.2 3.897,2.438c2.944,0.422 7.085,-1.084 12.428,-4.513c2.997,-1.912 6.325,-4.44 9.985,-7.59l0.662,-0.585c0.435,-0.356 0.735,-0.525 0.91,-0.5c0.272,0.041 0.387,0.216 0.343,0.522c-0.04,0.275 -0.312,0.6 -0.821,0.982l-2.316,1.921c-4.322,3.613 -8.406,6.538 -12.25,8.788c-4.55,2.737 -8.447,3.875 -11.697,3.412c-1.269,-0.181 -2.341,-0.631 -3.216,-1.35c-0.875,-0.715 -1.459,-1.634 -1.753,-2.762c-0.368,-1.1 -0.443,-2.384 -0.234,-3.859c0.3,-2.119 1.247,-4.341 2.834,-6.666c1.51,-2.266 3.447,-4.344 5.816,-6.244c2.381,-1.79 4.734,-3.097 7.05,-3.919c2.397,-0.881 4.587,-1.181 6.572,-0.9c2.84,0.407 4.103,1.707 3.794,3.894c-0.26,1.816 -1.379,3.422 -3.36,4.813c-1.95,1.434 -3.9,2.012 -5.85,1.737c-0.444,-0.065 -0.647,-0.234 -0.609,-0.509c0.047,-0.31 0.65,-0.763 1.819,-1.366" style="fill:#dca295;fill-rule:nonzero;"/><path d="M668.331,259.189c0.575,0.243 1.056,0.565 1.434,0.962c0.497,0.497 0.819,1.075 0.944,1.697c0.109,-1.009 -0.141,-2.15 -2.378,-2.659m-4.657,8.478l-0.378,0.209c0.406,-0.003 0.806,-0.047 1.2,-0.125l-0.628,-0.056l-0.194,-0.028Zm-13.772,0.815c-0.318,0.419 -0.621,0.841 -0.909,1.272c-1.509,2.213 -2.419,4.335 -2.7,6.316c-0.191,1.337 -0.122,2.506 0.203,3.472c0.263,1.012 0.744,1.775 1.485,2.381c0.753,0.616 1.693,1.006 2.8,1.166c2.093,0.3 4.506,-0.135 7.225,-1.282c-1.779,0.538 -3.338,0.71 -4.707,0.513c-1.918,-0.272 -3.425,-1.216 -4.478,-2.806c-1.069,-1.516 -1.465,-3.372 -1.162,-5.5c0.231,-1.616 0.881,-3.31 1.937,-5.038l0.306,-0.494Zm2.188,16.382c-0.528,-0 -1.047,-0.035 -1.547,-0.107c-1.419,-0.203 -2.637,-0.715 -3.631,-1.531c-1.013,-0.828 -1.697,-1.906 -2.031,-3.203c-0.394,-1.162 -0.485,-2.591 -0.257,-4.191c0.319,-2.24 1.319,-4.603 2.972,-7.021c1.544,-2.316 3.56,-4.482 5.985,-6.425c2.462,-1.854 4.912,-3.213 7.296,-4.06c2.507,-0.919 4.857,-1.234 6.972,-0.937c4.435,0.631 4.728,3.309 4.51,4.847c-0.291,2.046 -1.538,3.859 -3.707,5.384c-2.112,1.55 -4.29,2.181 -6.456,1.881c-0.384,-0.056 -0.681,-0.175 -0.906,-0.362c-0.328,-0.275 -0.478,-0.675 -0.419,-1.1c0.094,-0.653 0.71,-1.194 2.266,-1.997l0.24,-0.122l0.732,0.103c1.128,0.166 2.197,-0.109 3.262,-0.831c1,-0.675 1.556,-1.485 1.697,-2.481c0.075,-0.522 -0.087,-0.96 -0.509,-1.382c-0.457,-0.478 -1.188,-0.784 -2.185,-0.928c-0.947,-0.134 -2.14,-0.025 -3.553,0.325c-1.365,0.331 -2.809,0.935 -4.294,1.785c-1.496,0.859 -2.818,1.821 -3.931,2.862c-1.35,1.306 -2.55,2.816 -3.559,4.478c-0.938,1.535 -1.51,3.016 -1.71,4.4c-0.243,1.713 0.047,3.122 0.885,4.31c0.8,1.209 1.884,1.884 3.325,2.09c2.725,0.4 6.709,-1.084 11.853,-4.387c2.959,-1.891 6.284,-4.419 9.891,-7.519l0.653,-0.578c0.512,-0.422 1.059,-0.778 1.587,-0.703c0.735,0.109 1.169,0.718 1.06,1.475c-0.075,0.515 -0.441,1.003 -1.147,1.534l-2.288,1.9c-4.325,3.616 -8.487,6.597 -12.362,8.863c-4.003,2.412 -7.594,3.628 -10.694,3.628" style="fill:#dca295;fill-rule:nonzero;"/><path d="M679.97,267.19c0.422,0.203 0.844,0.334 1.25,0.393c1.675,0.25 3.616,0.013 5.822,-0.709c1.615,-0.528 2.594,-0.772 2.937,-0.719c0.375,0.056 0.669,0.203 0.875,0.444c0.178,0.234 0.238,0.525 0.188,0.869c-0.063,0.409 -0.266,0.747 -0.619,1.006l-2.131,1.991c-4.166,3.825 -6.475,7.256 -6.925,10.3c-0.194,1.331 0.069,2.49 0.797,3.471c0.687,1.013 1.665,1.613 2.934,1.797c1.603,0.241 3.4,-0.087 5.388,-0.981c2.096,-0.95 4.709,-2.537 7.834,-4.769c2.259,-1.584 4.687,-3.447 7.275,-5.578l1.737,-1.475l0.532,-0.394l0.447,-0.193c0.306,0.047 0.44,0.203 0.4,0.478c-0.025,0.172 -0.438,0.6 -1.238,1.284c-6.269,5.294 -11.25,8.944 -14.937,10.95c-3.725,2.035 -6.925,2.853 -9.591,2.46c-1.744,-0.26 -3.081,-1.016 -4.016,-2.272c-0.934,-1.257 -1.268,-2.757 -1.009,-4.503c0.5,-3.385 3.047,-7.238 7.631,-11.557c0.41,-0.393 0.625,-0.656 0.644,-0.793l-0.366,-0.369c-0.237,-0.038 -0.718,0.015 -1.434,0.153c-1.256,0.2 -2.241,0.244 -2.959,0.141c-0.716,-0.11 -1.469,-0.36 -2.247,-0.757l-0.066,0.097l-0.059,0.044l-1.025,0.897c-0.8,0.684 -1.322,1.009 -1.56,0.975l-0.356,-0.422l0.266,-0.378l0.206,-0.153l0.147,-0.11l0.09,-0.09l0.094,-0.091l0.913,-0.862l0.268,-0.222l0.457,-0.403c-0.285,-0.707 -0.382,-1.35 -0.294,-1.932c0.187,-1.265 0.791,-2.381 1.806,-3.35c0.988,-1.006 1.925,-1.443 2.816,-1.312c0.856,0.125 1.215,0.65 1.078,1.572c-0.141,0.959 -1.231,2.425 -3.269,4.393c-0.159,0.116 -0.403,0.344 -0.731,0.679" style="fill:#dca295;fill-rule:nonzero;"/><path d="M682.586,261.365c-0.562,0 -1.203,0.363 -1.909,1.085c-0.903,0.862 -1.413,1.796 -1.575,2.884c-0.056,0.391 0.006,0.844 0.187,1.347l0.078,-0.081c0.375,-0.382 0.657,-0.638 0.838,-0.769c2.391,-2.322 2.869,-3.403 2.931,-3.835l-0.028,-0.49l-0.341,-0.128l-0.181,-0.013Zm-6.197,7.706l0.507,0.675l0.062,-0.175l0.003,-0.065l-0.572,-0.435Zm10.341,-1.218l0.097,0.115c0.178,0.241 0.25,0.538 0.2,0.847c-0.05,0.353 -0.281,0.688 -0.888,1.275c-4.434,4.175 -6.918,7.897 -7.384,11.075c-0.228,1.531 0.05,2.797 0.85,3.872c0.806,1.081 1.937,1.719 3.462,1.947c0.85,0.122 1.772,0.109 2.754,-0.038c-0.288,-0.012 -0.569,-0.037 -0.847,-0.078c-1.503,-0.222 -2.682,-0.947 -3.507,-2.156c-0.84,-1.131 -1.162,-2.509 -0.934,-4.069c0.484,-3.272 2.834,-6.803 7.191,-10.797l2.122,-1.987l0.365,-0.519l-0.031,-0.234l0.003,-0l-0.331,-0.119c-0.047,0 -0.513,0.022 -2.55,0.688l-0.572,0.178Zm-2.466,20.9c-0.493,-0 -0.975,-0.035 -1.44,-0.103c-1.966,-0.291 -3.503,-1.169 -4.572,-2.607c-1.066,-1.431 -1.46,-3.156 -1.166,-5.125c0.516,-3.493 2.947,-7.293 7.431,-11.612c-1.359,0.215 -2.4,0.259 -3.203,0.144c-0.637,-0.097 -1.293,-0.291 -1.959,-0.582l-0.763,0.663c-1.087,0.931 -1.696,1.247 -2.228,1.175c-0.737,-0.11 -1.178,-0.675 -1.075,-1.375c0.05,-0.363 0.253,-0.675 0.594,-0.935l0.313,-0.231l0.225,-0.212l1.143,-1.053l0.019,-0.016c-0.181,-0.631 -0.231,-1.234 -0.147,-1.797c0.216,-1.453 0.91,-2.744 2.06,-3.841c1.162,-1.184 2.359,-1.718 3.521,-1.534c0.638,0.094 1.125,0.359 1.444,0.791c0.335,0.45 0.45,1.037 0.344,1.74c-0.166,1.113 -1.178,2.566 -3.181,4.544c1.472,0.156 3.206,-0.075 5.156,-0.716c2.416,-0.787 2.987,-0.803 3.322,-0.75c0.578,0.085 1.047,0.329 1.39,0.725c0.254,0.335 0.488,0.829 0.385,1.541c-0.097,0.634 -0.425,1.175 -0.953,1.566l-2.057,1.928c-4.006,3.678 -6.246,6.978 -6.668,9.806c-0.16,1.116 0.047,2.05 0.643,2.85c0.575,0.841 1.347,1.309 2.375,1.463c1.438,0.215 3.094,-0.097 4.922,-0.919c2.035,-0.919 4.622,-2.494 7.691,-4.681c2.234,-1.569 4.666,-3.432 7.228,-5.544l2.3,-1.897c0.25,-0.181 0.628,-0.406 1.072,-0.35c0.369,0.056 0.653,0.206 0.856,0.444c0.222,0.265 0.316,0.618 0.256,0.993c-0.053,0.379 -0.296,0.747 -1.518,1.8c-6.285,5.307 -11.36,9.022 -15.085,11.05c-3.231,1.766 -6.143,2.657 -8.675,2.657" style="fill:#dca295;fill-rule:nonzero;"/><path d="M705.343,278.207c0.494,0.216 1.132,0.384 1.919,0.503c1.675,0.253 3.5,0.081 5.484,-0.528c2.019,-0.637 3.71,-1.516 5.069,-2.634c1.41,-1.222 2.21,-2.447 2.397,-3.678c0.213,-1.4 -0.447,-2.216 -1.987,-2.454c-2.288,-0.346 -5.157,0.894 -8.594,3.725c-1.394,1.119 -2.822,2.807 -4.288,5.066m-0.625,1.006c-0.678,1.472 -1.103,2.772 -1.275,3.897c-0.265,1.744 0.047,3.244 0.938,4.497c0.922,1.294 2.206,2.069 3.844,2.319c1.64,0.253 3.493,0.025 5.559,-0.672c1.994,-0.678 4.406,-1.938 7.237,-3.775c2.954,-1.931 5.972,-4.181 9.057,-6.753l1.443,-1.197c0.404,-0.356 0.635,-0.556 0.694,-0.6l0.147,-0.109c0.363,-0.294 0.641,-0.429 0.847,-0.397l0.35,0.475c-0.038,0.24 -0.753,0.918 -2.147,2.031c-5.853,4.878 -10.834,8.437 -14.953,10.678c-4.5,2.425 -8.131,3.428 -10.9,3.006c-1.913,-0.29 -3.384,-1.181 -4.419,-2.665c-1.069,-1.46 -1.453,-3.194 -1.147,-5.213c0.369,-2.425 1.594,-4.95 3.675,-7.572c2.291,-2.865 5.007,-5.212 8.153,-7.043c3.141,-1.794 5.772,-2.529 7.891,-2.207c1.063,0.16 1.844,0.525 2.356,1.094c0.503,0.566 0.688,1.313 0.547,2.234c-0.24,1.607 -1.209,3.119 -2.894,4.541c-1.725,1.453 -3.765,2.541 -6.112,3.266c-2.422,0.75 -4.678,0.965 -6.759,0.647c-0.344,-0.05 -1.054,-0.21 -2.132,-0.482" style="fill:#dca295;fill-rule:nonzero;"/><path d="M718.852,268.685c1.659,0.425 2.453,1.612 2.194,3.312c-0.116,0.75 -0.419,1.494 -0.903,2.229c0.928,-1.007 1.478,-2.047 1.64,-3.11c0.1,-0.669 -0.009,-1.175 -0.343,-1.547c-0.372,-0.415 -0.997,-0.693 -1.85,-0.822l-0.738,-0.062Zm-12.181,9.059l0.715,0.132c1.55,0.237 3.269,0.068 5.113,-0.497c1.903,-0.603 3.516,-1.438 4.781,-2.482c1.231,-1.068 1.944,-2.134 2.1,-3.153c0.122,-0.803 -0.05,-1.303 -1.281,-1.493c-2.028,-0.297 -4.7,0.881 -7.934,3.543c-1.125,0.903 -2.297,2.228 -3.494,3.95m-0.591,-2.053c-0.612,0.638 -1.197,1.303 -1.753,2c-1.975,2.491 -3.156,4.906 -3.5,7.172c-0.272,1.803 0.053,3.303 0.994,4.584c0.915,1.319 2.178,2.079 3.865,2.335c1.891,0.287 4.294,-0.169 7.157,-1.366c-1.719,0.447 -3.313,0.563 -4.744,0.344c-1.866,-0.284 -3.347,-1.181 -4.403,-2.663c-1.019,-1.437 -1.385,-3.156 -1.085,-5.112c0.182,-1.203 0.635,-2.588 1.341,-4.122l0.294,-0.637l0.069,0.018l0.321,-0.497c0.482,-0.74 0.966,-1.428 1.444,-2.056m0.788,17.863c-0.497,-0 -0.975,-0.035 -1.435,-0.107c-2.14,-0.325 -3.815,-1.34 -4.984,-3.018c-1.191,-1.622 -1.625,-3.585 -1.288,-5.819c0.388,-2.559 1.685,-5.241 3.847,-7.969c2.347,-2.937 5.169,-5.375 8.391,-7.25c3.297,-1.884 6.128,-2.659 8.441,-2.309c1.25,0.187 2.212,0.647 2.856,1.362c0.681,0.766 0.934,1.747 0.753,2.925c-0.272,1.803 -1.344,3.507 -3.184,5.06c-1.807,1.518 -3.963,2.672 -6.407,3.425c-2.534,0.784 -4.934,1.009 -7.134,0.675c-0.275,-0.041 -0.781,-0.147 -1.522,-0.325c-0.481,1.134 -0.791,2.15 -0.925,3.034c-0.234,1.531 0.025,2.8 0.791,3.881c0.793,1.113 1.868,1.757 3.284,1.975c1.5,0.228 3.234,0.013 5.163,-0.64c1.915,-0.65 4.284,-1.891 7.046,-3.682c2.919,-1.909 5.941,-4.159 8.979,-6.69l1.443,-1.2c0.41,-0.366 0.663,-0.581 0.728,-0.628c0.479,-0.382 1.025,-0.75 1.632,-0.663c0.725,0.11 1.159,0.697 1.05,1.431c-0.063,0.416 -0.269,0.819 -2.453,2.566c-5.857,4.881 -10.932,8.506 -15.079,10.763c-3.984,2.146 -7.271,3.203 -9.993,3.203" style="fill:#dca295;fill-rule:nonzero;"/><path d="M750.465,277.308c3.272,-3.019 7.15,-7.1 11.631,-12.244c3.294,-3.822 6.119,-7.44 8.475,-10.85c2.219,-3.222 3.438,-5.515 3.65,-6.878c0.119,-0.753 -0.097,-1.172 -0.644,-1.259c-0.646,-0.1 -1.793,0.49 -3.428,1.772c-1.437,1.14 -3.156,2.847 -5.159,5.122c-1.519,1.653 -3.356,4.112 -5.513,7.378c-1.968,2.947 -3.753,5.956 -5.353,9.031c-1.709,3.3 -2.928,5.944 -3.659,7.928m-3.919,-2.45l-1.653,1.156c-0.859,-0.765 -1.616,-1.197 -2.262,-1.297c-0.994,-0.156 -2.197,-0.05 -3.622,0.319c-1.272,0.328 -2.628,0.922 -4.057,1.781c-1.346,0.769 -2.634,1.741 -3.868,2.91c-2.566,2.503 -4.01,4.812 -4.344,6.931c-0.384,2.463 0.462,3.853 2.547,4.181c1.95,0.307 4.884,-0.79 8.812,-3.293c2.682,-1.71 5.3,-3.682 7.853,-5.904l0.325,-0.737l1.2,-2.963c1.229,-3.134 3.269,-7.012 6.132,-11.637c2.722,-4.438 5.515,-8.391 8.368,-11.863c2.557,-3.131 5.069,-5.646 7.532,-7.531c2.512,-1.953 4.35,-2.837 5.509,-2.656c0.784,0.125 1.1,0.697 0.938,1.722c-0.263,1.675 -1.291,4 -3.088,6.972c-1.825,2.931 -4.272,6.24 -7.331,9.925c-1.391,1.706 -3.541,4.15 -6.453,7.337c-2.369,2.6 -4.46,4.791 -6.278,6.572l-2.55,2.538l-0.807,0.768c-0.968,3.069 -1.568,5.319 -1.79,6.75c-0.785,4.991 0.106,7.685 2.668,8.085c3.55,0.559 9.835,-2.794 18.847,-10.063l0.363,-0.309l0.306,-0.266l0.238,-0.175l0.237,-0.172c0.434,-0.315 0.775,-0.597 1.022,-0.837c0.481,-0.378 0.787,-0.56 0.925,-0.538c0.306,0.047 0.434,0.225 0.391,0.532c-0.035,0.206 -0.229,0.44 -0.582,0.7c-0.159,0.115 -0.4,0.318 -0.728,0.618c-1.134,0.978 -2.79,2.275 -4.969,3.894c-2.178,1.619 -4.318,3.103 -6.418,4.453c-2.841,1.828 -5.16,3.094 -6.947,3.794c-1.863,0.722 -3.531,0.966 -4.997,0.737c-1.609,-0.25 -2.756,-1.168 -3.456,-2.746c-0.703,-1.544 -0.844,-3.65 -0.428,-6.313c0.134,-0.856 0.368,-1.887 0.696,-3.094l0.113,-0.378l0.169,-0.734l-0.966,0.794c-4.175,3.406 -7.625,5.768 -10.35,7.09c-2.587,1.31 -4.937,1.797 -7.056,1.466c-1.297,-0.203 -2.228,-0.75 -2.788,-1.644c-0.593,-0.9 -0.784,-2.012 -0.578,-3.344c0.347,-2.187 1.585,-4.512 3.722,-6.978c2.091,-2.4 4.581,-4.337 7.469,-5.809c3.612,-1.813 6.559,-2.541 8.847,-2.181c1.162,0.181 2.206,0.659 3.137,1.437" style="fill:#dca295;fill-rule:nonzero;"/><path d="M773.799,245.261c0.531,0.112 1.031,0.459 1.216,1.121l0.109,-0.534c0.069,-0.453 -0,-0.625 -0.022,-0.666l-0.216,-0.093c-0.209,-0.032 -0.553,-0.016 -1.087,0.172m-0.403,1.575c0.019,0.068 -0.6,0.012 -2.725,1.675c-1.388,1.1 -3.085,2.787 -5.05,5.018c-1.494,1.628 -3.322,4.075 -5.441,7.285c-1.94,2.906 -3.725,5.918 -5.309,8.956c-0.766,1.481 -1.435,2.831 -2.003,4.047c2.562,-2.569 5.44,-5.685 8.593,-9.306c3.247,-3.769 6.082,-7.397 8.416,-10.775c2.663,-3.866 3.378,-5.685 3.509,-6.532l0.01,-0.368Zm-29.066,27.687l0.61,0.431l0.131,-0.093l-0.741,-0.338Zm-2.634,0.969c-0.713,-0 -1.541,0.122 -2.478,0.362c-1.188,0.307 -2.478,0.872 -3.832,1.688c-1.29,0.737 -2.537,1.675 -3.725,2.797c-2.406,2.353 -3.784,4.525 -4.087,6.45c-0.394,2.515 0.712,3.037 1.847,3.215c1.184,0.188 3.581,-0.209 8.225,-3.168c2.575,-1.641 5.134,-3.56 7.612,-5.707l0.247,-0.562l1.191,-2.938c0.328,-0.831 0.709,-1.715 1.15,-2.653l-3.016,2.113l-0.497,-0.444c-0.912,-0.813 -1.5,-1.044 -1.831,-1.094c-0.25,-0.04 -0.519,-0.059 -0.806,-0.059m-12.169,4.622c-0.631,0.584 -1.231,1.2 -1.8,1.85c-2.019,2.331 -3.203,4.537 -3.522,6.556c-0.178,1.125 -0.028,2.025 0.447,2.75c0.441,0.697 1.163,1.109 2.216,1.275c1.934,0.3 4.134,-0.166 6.543,-1.384c0.644,-0.313 1.332,-0.688 2.06,-1.119c-2.631,1.344 -4.713,1.875 -6.316,1.628c-1.475,-0.231 -3.862,-1.209 -3.247,-5.141c0.319,-2.034 1.507,-4.14 3.619,-6.415m16.666,2.437l-0.25,1.606c-0.05,0.319 -0.119,0.604 -0.197,0.857l-0.094,0.303c-0.331,1.212 -0.556,2.225 -0.687,3.047c-0.388,2.487 -0.266,4.45 0.362,5.834c0.584,1.319 1.503,2.056 2.816,2.259c1.318,0.204 2.853,-0.028 4.565,-0.687l0.557,-0.231c-1.163,0.287 -2.185,0.359 -3.069,0.218c-1.591,-0.25 -2.716,-1.25 -3.256,-2.89c-0.494,-1.491 -0.532,-3.503 -0.116,-6.156c0.225,-1.422 0.778,-3.538 1.691,-6.457l-0.05,0.047l1.209,-3.284c0.737,-2.003 1.984,-4.703 3.7,-8.025c1.256,-2.403 2.631,-4.794 4.109,-7.125c-1.065,1.562 -2.118,3.19 -3.156,4.881c-2.819,4.553 -4.859,8.425 -6.062,11.503l-1.616,3.903l-0.141,0.122l-0.315,0.275Zm2.912,15.666c-0.419,-0 -0.825,-0.031 -1.222,-0.091c-1.897,-0.297 -3.275,-1.384 -4.093,-3.24c-0.766,-1.679 -0.932,-3.963 -0.491,-6.785c0.084,-0.537 0.206,-1.14 0.366,-1.809c-3.769,3.003 -6.96,5.144 -9.507,6.378c-2.718,1.378 -5.262,1.894 -7.55,1.541c-1.543,-0.241 -2.678,-0.925 -3.372,-2.029c-0.7,-1.059 -0.937,-2.384 -0.696,-3.925c0.368,-2.334 1.687,-4.821 3.915,-7.396c2.16,-2.479 4.756,-4.5 7.725,-6.01c3.81,-1.912 6.875,-2.647 9.36,-2.265c1.309,0.206 2.503,0.753 3.546,1.625l0.804,0.671c1.234,-2.615 2.909,-5.637 5.003,-9.018c2.718,-4.432 5.556,-8.453 8.434,-11.957c2.588,-3.171 5.169,-5.75 7.672,-7.668c2.759,-2.144 4.712,-3.035 6.153,-2.816c0.822,0.131 1.234,0.591 1.431,0.953c0.25,0.46 0.316,1.025 0.207,1.735c-0.282,1.796 -1.329,4.178 -3.2,7.275c-1.841,2.956 -4.329,6.328 -7.404,10.028c-1.387,1.703 -3.568,4.184 -6.478,7.365c-2.378,2.61 -4.503,4.835 -6.312,6.607l-3.206,3.162c-0.916,2.913 -1.488,5.072 -1.697,6.422c-0.369,2.35 -0.353,4.153 0.047,5.369c0.343,1.043 0.953,1.6 1.918,1.753c2.272,0.359 7.257,-1.075 18.191,-9.888l0.387,-0.331l0.16,-0.122l0.15,-0.147l0.469,-0.34c0.4,-0.291 0.712,-0.544 0.937,-0.766c0.728,-0.581 1.175,-0.85 1.653,-0.766c0.463,0.072 0.728,0.316 0.869,0.507c0.137,0.187 0.287,0.509 0.212,0.984c-0.075,0.453 -0.375,0.859 -0.918,1.253c-0.141,0.103 -0.357,0.291 -0.653,0.563c-1.16,1 -2.797,2.284 -5.032,3.947c-2.206,1.634 -4.381,3.143 -6.468,4.484c-2.875,1.853 -5.266,3.156 -7.097,3.869c-1.503,0.584 -2.916,0.878 -4.213,0.878" style="fill:#dca295;fill-rule:nonzero;"/><path d="M804.513,301.297c2.822,-0.522 5.728,-1.684 8.722,-3.481c3.219,-1.941 6.409,-4.4 9.575,-7.388c3.256,-2.94 6.712,-6.634 10.369,-11.081c0.54,-0.641 0.925,-0.962 1.153,-0.962c0.409,-0.004 0.619,0.175 0.619,0.54c0.003,0.366 -0.291,0.844 -0.879,1.441c-0.315,0.322 -0.562,0.597 -0.743,0.825c-0.138,0.14 -0.363,0.403 -0.678,0.794c-0.316,0.39 -0.607,0.718 -0.879,0.996c-3.253,3.625 -6.168,6.654 -8.746,9.085c-2.622,2.437 -5.113,4.412 -7.469,5.934c-2.31,1.522 -4.647,2.678 -7.01,3.472c-2.315,0.794 -4.775,1.266 -7.368,1.425c-0.453,0.094 -0.728,0.141 -0.819,0.141l-0.272,0.037l-0.275,0.106c-2.225,0.469 -3.912,0.71 -5.047,0.719c-2.006,0.016 -3.672,-0.265 -4.997,-0.847c-1.372,-0.628 -2.059,-1.353 -2.065,-2.172c-0.01,-1.046 0.578,-1.575 1.762,-1.584c0.547,-0.003 1.528,0.216 2.944,0.659c2.969,0.935 5.275,1.51 6.912,1.725c2.547,-0.706 4.585,-2.221 6.116,-4.559c1.575,-2.378 2.353,-5.006 2.331,-7.875c-0.012,-1.822 -0.278,-3.481 -0.79,-4.981c-0.466,-1.363 -1.597,-3.425 -3.397,-6.191l-1.038,-1.494l-0.406,0.444l-0.537,0.585l-0.682,0.825l-1.825,2.203c-0.406,0.55 -0.815,0.825 -1.225,0.828c-0.362,0.003 -0.547,-0.178 -0.55,-0.544c-0.003,-0.316 0.382,-0.866 1.147,-1.644c0.722,-0.828 1.241,-1.425 1.56,-1.79c0.271,-0.278 0.531,-0.572 0.781,-0.894c0.247,-0.319 0.481,-0.594 0.709,-0.828l0.406,-0.41c-0.512,-1.365 -0.771,-2.478 -0.778,-3.343c-0.009,-1.319 0.391,-2.532 1.203,-3.628c0.766,-1.104 1.625,-1.654 2.585,-1.663c1.134,-0.009 1.709,0.669 1.722,2.038c0.012,1.503 -0.66,3.125 -2.01,4.862l-0.612,0.759l-0.2,0.413l0.275,0.544l0.35,0.475c0.365,0.409 0.847,0.95 1.444,1.628c2.343,2.487 3.95,4.572 4.831,6.25c0.831,1.631 1.256,3.544 1.275,5.728c0.019,2.369 -0.556,4.494 -1.728,6.366c-1.078,1.696 -3.003,3.534 -5.766,5.512" style="fill:#dca295;fill-rule:nonzero;"/><path d="M802.881,275.587l1.394,2.009c1.834,2.816 3.009,4.963 3.503,6.397c0.54,1.585 0.822,3.35 0.834,5.247c0.025,3.028 -0.806,5.838 -2.472,8.35c-1.425,2.175 -3.297,3.71 -5.569,4.569l0.438,-0.088c0.369,-0.021 0.737,-0.053 1.097,-0.087l1.915,-1.372c2.669,-1.909 4.535,-3.684 5.547,-5.278c1.075,-1.722 1.613,-3.713 1.594,-5.909c-0.012,-2.044 -0.412,-3.844 -1.181,-5.35c-0.838,-1.6 -2.419,-3.641 -4.697,-6.057c-0.609,-0.697 -1.091,-1.234 -1.456,-1.643l-0.4,-0.541c-0.347,-0.322 -0.438,-0.753 -0.438,-1.041c-0.006,-0.243 0.069,-0.625 0.444,-1.003l0.553,-0.694c1.216,-1.568 1.834,-3.031 1.825,-4.331c-0.006,-0.462 -0.091,-0.819 -0.241,-0.997c-0.046,-0.05 -0.196,-0.222 -0.634,-0.203c-0.672,0.006 -1.294,0.431 -1.9,1.3c-0.719,0.975 -1.056,1.997 -1.05,3.141c0.006,0.762 0.25,1.79 0.725,3.053l0.191,0.506l-0.022,0.022Zm-13.397,24.553l-0.009,0c-0.369,0.006 -0.644,0.072 -0.775,0.188l-0.154,0.547c0.007,0.603 0.988,1.143 1.575,1.409c1.194,0.525 2.763,0.769 4.638,0.775c0.962,-0.009 2.387,-0.2 4.244,-0.572c-1.672,-0.241 -3.972,-0.822 -6.844,-1.725c-1.716,-0.537 -2.409,-0.622 -2.675,-0.622m5.137,4.603c-2.056,0 -3.8,-0.309 -5.19,-0.918c-1.7,-0.779 -2.56,-1.763 -2.572,-2.935c-0.006,-0.965 0.384,-1.522 0.716,-1.815c0.453,-0.407 1.087,-0.613 1.887,-0.619l0.025,-0c0.644,-0 1.656,0.222 3.175,0.697c2.803,0.881 5.022,1.443 6.6,1.668c2.288,-0.671 4.078,-2.034 5.472,-4.159c1.475,-2.231 2.212,-4.722 2.194,-7.406c-0.013,-1.719 -0.266,-3.306 -0.747,-4.719c-0.447,-1.3 -1.56,-3.319 -3.306,-6l-0.416,-0.603l-0.259,0.269l-2.457,2.975c-0.543,0.734 -1.184,1.128 -1.868,1.131c-0.544,-0.003 -0.825,-0.197 -1.004,-0.372c-0.178,-0.175 -0.387,-0.487 -0.393,-1.006c-0.007,-0.585 0.393,-1.235 1.387,-2.244l1.522,-1.75c0.288,-0.294 0.525,-0.566 0.756,-0.862c0.263,-0.344 0.522,-0.641 0.769,-0.894l0.038,-0.041c-0.429,-1.237 -0.641,-2.259 -0.647,-3.119c-0.013,-1.503 0.45,-2.896 1.365,-4.137c0.913,-1.313 2.013,-1.994 3.257,-2.003c1.109,0.025 1.621,0.431 1.934,0.8c0.416,0.494 0.628,1.19 0.637,2.072c0.013,1.687 -0.721,3.5 -2.187,5.387l-0.572,0.713l0.4,0.462c0.313,0.344 0.797,0.891 1.397,1.569c2.359,2.506 4.031,4.672 4.944,6.419c0.893,1.747 1.353,3.803 1.372,6.109c0.021,2.522 -0.604,4.816 -1.857,6.819c-0.634,1.003 -1.518,2.025 -2.672,3.087c1.472,-0.575 2.966,-1.315 4.479,-2.225c3.153,-1.9 6.328,-4.35 9.431,-7.275c3.222,-2.909 6.678,-6.606 10.297,-11.006c0.772,-0.916 1.275,-1.269 1.797,-1.272c0.618,0.022 0.896,0.213 1.081,0.394c0.175,0.175 0.387,0.484 0.387,0.987c0.007,0.607 -0.35,1.257 -1.118,2.038c-0.291,0.294 -0.516,0.544 -0.682,0.753c-0.19,0.2 -0.397,0.444 -0.687,0.803c-0.331,0.413 -0.644,0.763 -0.935,1.056c-3.228,3.6 -6.184,6.675 -8.765,9.107c-2.647,2.459 -5.197,4.484 -7.591,6.031c-2.359,1.553 -4.784,2.75 -7.197,3.562c-2.368,0.81 -4.925,1.304 -7.587,1.469c-0.591,0.131 -0.753,0.141 -0.872,0.141l-0.372,0.125c-2.312,0.487 -4.016,0.728 -5.216,0.737l-0.15,0Z" style="fill:#dca295;fill-rule:nonzero;"/><path d="M832.406,297.464c-0.179,0.563 -0.257,1.035 -0.238,1.413c0.078,1.45 1.013,2.131 2.806,2.034c2.244,-0.119 4.432,-1.34 6.557,-3.669c-1.785,0.235 -3.269,0.382 -4.441,0.441c-1.553,0.081 -3.116,0.009 -4.684,-0.219m5.721,-24.4l1.247,-0.012l-0.581,0.809c-1.231,1.622 -2.484,3.438 -3.762,5.444c-1.344,2.147 -2.894,4.841 -4.663,8.087c-1.544,2.922 -2.684,5.213 -3.428,6.879l0.197,-0.216l0.144,-0.163l0.243,-0.325l2.285,-2.978c1.818,-2.243 4,-4.522 6.543,-6.837c3.147,-2.763 5.96,-4.21 8.444,-4.341c1.175,-0.059 2.163,0.3 2.966,1.091c0.806,0.822 1.244,1.856 1.309,3.1c0.166,3.178 -1.159,6.934 -3.978,11.269c1.934,-0.757 3.588,-1.591 4.959,-2.494c1.607,-1.019 3.172,-2.21 4.694,-3.572c2.516,-2.175 4.403,-4.109 5.663,-5.803c0.293,-0.431 0.506,-0.65 0.643,-0.656c0.344,-0.019 0.525,0.128 0.544,0.437c0.006,0.138 -0.184,0.459 -0.575,0.966l-1.022,1.3c-1.172,1.378 -2.487,2.675 -3.95,3.897c-1.756,1.478 -3.403,2.74 -4.937,3.79c-1.844,1.206 -4.269,2.441 -7.285,3.71c-1.996,2.181 -3.781,3.784 -5.356,4.8c-1.537,1.015 -3.065,1.565 -4.587,1.643c-1.032,0.053 -1.966,-0.243 -2.797,-0.89c-0.797,-0.616 -1.219,-1.444 -1.275,-2.478c-0.05,-0.932 0.081,-1.735 0.394,-2.407c0.346,-0.643 0.762,-0.978 1.243,-1.003l0.26,-0.012l0.159,0.04l1.206,0.25c1.26,0.282 2.775,0.375 4.532,0.282c2.246,-0.119 4.046,-0.457 5.403,-1.013c1.49,-1.912 2.556,-3.65 3.203,-5.206c0.703,-1.735 1.019,-3.344 0.94,-4.828c-0.059,-1.141 -0.437,-2.038 -1.131,-2.691c-0.725,-0.656 -1.64,-0.953 -2.747,-0.897c-3.625,0.191 -7.975,3.4 -13.043,9.619c-1.888,2.319 -3.641,5.181 -5.263,8.591c-1.653,3.409 -3.106,7.381 -4.353,11.915c-2.097,7.553 -3.219,13.825 -3.372,18.819l-2.909,0.934l0.103,-0.993c2.462,-19.622 8.99,-37.607 19.587,-53.954c1.213,-1.9 1.969,-3.012 2.263,-3.337c0.362,-0.331 0.959,-0.519 1.787,-0.563l0.053,-0.003Z" style="fill:#dca295;fill-rule:nonzero;"/><path d="M843.54,281.187c1.197,0 2.222,0.375 3.047,1.119c0.869,0.822 1.334,1.916 1.406,3.275l0.009,0.81c0.194,-0.966 0.272,-1.882 0.225,-2.744c-0.056,-1.041 -0.403,-1.878 -1.065,-2.556c-0.622,-0.607 -1.413,-0.879 -2.322,-0.838c-1.409,0.075 -2.969,0.634 -4.659,1.675c1.053,-0.437 2.068,-0.681 3.05,-0.731l0.309,-0.01Zm-10.5,17.21l-0.031,0.437c0.034,0.616 0.253,0.841 0.415,0.96c0.3,0.215 0.819,0.312 1.507,0.275c1.387,-0.072 2.775,-0.641 4.15,-1.694c-0.719,0.072 -1.372,0.122 -1.947,0.15c-1.353,0.075 -2.725,0.031 -4.094,-0.128m-1.55,-1.444l-0.544,0.563c-0.228,0.493 -0.334,1.171 -0.294,1.962c0.044,0.788 0.354,1.394 0.95,1.853c0.675,0.528 1.416,0.76 2.238,0.716c0.616,-0.031 1.244,-0.153 1.872,-0.363l-0.691,0.069c-1.09,0.056 -1.962,-0.144 -2.59,-0.597c-0.466,-0.34 -1.038,-1.003 -1.104,-2.234c-0.025,-0.485 0.063,-1.044 0.275,-1.71l0.066,-0.212l-0.1,0.006l-0.078,-0.053Zm6.181,-23c-0.494,0.072 -0.719,0.213 -0.815,0.3c-0.063,0.078 -0.522,0.666 -2.122,3.172c-10.422,16.078 -16.957,34.003 -19.422,53.291l1.112,-0.357c0.222,-4.956 1.36,-11.15 3.378,-18.425c1.257,-4.559 2.738,-8.615 4.407,-12.056c0.518,-1.094 1.056,-2.134 1.609,-3.122l-1.581,1.731l1.931,-4.556c0.744,-1.665 1.903,-3.997 3.453,-6.931c1.785,-3.272 3.36,-6.006 4.694,-8.141c1.131,-1.775 2.256,-3.422 3.356,-4.906m-24.309,59.159l0.237,-2.278c2.469,-19.678 9.1,-37.947 19.716,-54.325c1.844,-2.881 2.219,-3.303 2.344,-3.44c0.575,-0.535 1.334,-0.791 2.375,-0.844l0.084,-0.003l2.913,-0.035l-1.554,2.166c-1.225,1.616 -2.481,3.428 -3.737,5.406c-1.309,2.094 -2.866,4.797 -4.622,8.019c1.4,-1.541 2.959,-3.097 4.669,-4.65c3.287,-2.887 6.3,-4.416 8.965,-4.559c1.419,-0.066 2.632,0.375 3.6,1.334c0.963,0.981 1.485,2.206 1.56,3.653c0.147,2.76 -0.772,5.941 -2.728,9.481c0.881,-0.434 1.684,-0.89 2.406,-1.365c1.572,-0.997 3.112,-2.172 4.594,-3.494c2.475,-2.144 4.34,-4.05 5.55,-5.678c0.381,-0.566 0.753,-0.966 1.268,-0.997c0.797,-0.047 1.391,0.45 1.435,1.231c0.019,0.394 -0.169,0.775 -0.747,1.528l-1.028,1.31c-1.216,1.431 -2.578,2.775 -4.072,4.019c-1.753,1.475 -3.438,2.768 -5.003,3.84c-1.85,1.213 -4.288,2.463 -7.263,3.719c-2.022,2.194 -3.787,3.766 -5.393,4.803c-1.654,1.094 -3.341,1.691 -5.004,1.778c-1.237,0.063 -2.368,-0.294 -3.359,-1.069c-0.991,-0.762 -1.528,-1.806 -1.597,-3.096c-0.056,-1.069 0.1,-2.013 0.469,-2.807c0.641,-1.187 1.422,-1.462 1.969,-1.487l0.609,-0.035l0.1,0.097l1.125,0.232c1.197,0.262 2.641,0.346 4.319,0.262c2.031,-0.106 3.684,-0.4 4.922,-0.869c1.365,-1.772 2.356,-3.397 2.95,-4.831c0.653,-1.606 0.947,-3.106 0.878,-4.459c-0.05,-0.925 -0.335,-1.619 -0.869,-2.125c-0.544,-0.491 -1.269,-0.707 -2.125,-0.666c-3.359,0.178 -7.544,3.309 -12.434,9.313c-1.838,2.256 -3.572,5.087 -5.153,8.418c-1.629,3.353 -3.075,7.313 -4.304,11.775c-2.065,7.441 -3.19,13.703 -3.34,18.622l-0.019,0.597l-4.706,1.509Z" style="fill:#dca295;fill-rule:nonzero;"/><path d="M881.816,282.794l-0.275,-0.594c2.406,-1.803 3.497,-3.688 3.275,-5.644c-0.144,-1.272 -0.753,-2.19 -1.828,-2.769c-1.072,-0.537 -2.535,-0.703 -4.388,-0.493c-2.681,0.306 -5.506,1.478 -8.475,3.522c-3.037,2.046 -5.515,4.45 -7.428,7.209c-1.378,1.966 -2.416,3.872 -3.109,5.725c-0.722,1.894 -1.019,3.441 -0.882,4.644c0.138,1.203 0.619,2.087 1.447,2.653c0.807,0.64 1.775,0.894 2.907,0.765c2.096,-0.237 4.456,-1.825 7.081,-4.768c2.622,-2.944 4.875,-6.557 6.756,-10.838c0.519,-0.34 0.947,-0.528 1.291,-0.565c0.378,-0.044 0.822,0.168 1.325,0.631c-2.038,4.44 -2.885,8.156 -2.547,11.147c0.119,1.028 0.469,1.809 1.05,2.334c0.547,0.563 1.253,0.797 2.115,0.697c1.888,-0.213 4.688,-2.359 8.4,-6.431c2.566,-2.866 4.854,-5.685 6.872,-8.45l1.072,-1.585c0.813,-1.137 1.319,-1.718 1.525,-1.74c0.278,-0.032 0.431,0.109 0.466,0.418c0.034,0.307 -0.778,1.566 -2.441,3.772c-2.172,2.963 -4.469,5.85 -6.897,8.663c-2.218,2.55 -4.193,4.478 -5.922,5.79c-1.762,1.347 -3.243,2.088 -4.446,2.222c-1.235,0.141 -2.288,-0.225 -3.15,-1.103c-0.907,-0.906 -1.438,-2.097 -1.607,-3.575c-0.109,-0.959 -0.093,-2.509 0.047,-4.65l-0.634,0.853c-4.931,6.544 -9.269,10.032 -13.01,10.457c-1.34,0.153 -2.437,-0.16 -3.29,-0.932c-0.919,-0.731 -1.46,-1.822 -1.622,-3.262c-0.175,-1.547 0.109,-3.319 0.856,-5.316c0.741,-2.065 1.831,-4.122 3.269,-6.162c1.434,-2.078 3.066,-3.95 4.897,-5.622c2.419,-2.256 4.997,-4.097 7.722,-5.519c2.756,-1.462 5.253,-2.319 7.487,-2.572c2.266,-0.256 4.028,-0.072 5.278,0.55c1.253,0.622 1.966,1.672 2.135,3.15c0.318,2.816 -1.457,5.281 -5.322,7.388" style="fill:#dca295;fill-rule:nonzero;"/><path d="M881.332,272.439c0.766,0.1 1.441,0.3 2.034,0.597c1.347,0.721 2.11,1.871 2.288,3.425c0.094,0.834 -0.009,1.65 -0.309,2.45c0.778,-1.069 1.093,-2.2 0.956,-3.413c-0.138,-1.197 -0.669,-1.987 -1.672,-2.487c-0.819,-0.407 -1.953,-0.597 -3.297,-0.572m-6.3,15.272l-0.141,2.128c-0.137,2.072 -0.156,3.587 -0.05,4.497c0.147,1.3 0.594,2.306 1.363,3.078c0.684,0.69 1.487,0.978 2.459,0.859c0.897,-0.1 2.019,-0.622 3.347,-1.553c-0.65,0.319 -1.244,0.506 -1.784,0.569c-1.119,0.128 -2.088,-0.2 -2.813,-0.947c-0.697,-0.628 -1.143,-1.591 -1.284,-2.828c-0.338,-2.988 0.45,-6.678 2.337,-10.972l-0.184,-0.063c-0.081,0.007 -0.303,0.06 -0.719,0.307c-0.778,1.746 -1.622,3.387 -2.531,4.925m-13.531,-3.425c-0.41,0.521 -0.806,1.059 -1.191,1.612c-1.39,1.975 -2.453,3.978 -3.165,5.969c-0.7,1.872 -0.975,3.528 -0.813,4.934c0.138,1.225 0.566,2.106 1.309,2.697c0.713,0.644 1.572,0.875 2.669,0.753c1.491,-0.165 3.11,-0.887 4.847,-2.15c-0.681,0.294 -1.35,0.478 -2,0.55c-1.378,0.153 -2.55,-0.169 -3.528,-0.947c-0.988,-0.668 -1.597,-1.762 -1.759,-3.218c-0.154,-1.344 0.15,-2.991 0.931,-5.035c0.622,-1.665 1.531,-3.403 2.7,-5.165m-1.741,17.684c-1.259,-0 -2.337,-0.397 -3.209,-1.188c-1.056,-0.837 -1.71,-2.125 -1.894,-3.79c-0.191,-1.672 0.113,-3.591 0.903,-5.706c0.76,-2.119 1.894,-4.26 3.369,-6.354c1.462,-2.115 3.15,-4.053 5.019,-5.756c2.456,-2.294 5.118,-4.194 7.9,-5.647c2.834,-1.5 5.453,-2.397 7.781,-2.662c2.419,-0.275 4.356,-0.06 5.75,0.634c1.522,0.756 2.394,2.038 2.597,3.81c0.359,3.178 -1.578,5.946 -5.756,8.225l-0.791,0.428l-0.941,-2.028l0.547,-0.41c2.138,-1.603 3.128,-3.244 2.944,-4.875c-0.116,-1 -0.556,-1.672 -1.391,-2.119c-0.9,-0.453 -2.215,-0.59 -3.893,-0.4c-2.529,0.288 -5.25,1.422 -8.091,3.379c-2.947,1.984 -5.372,4.337 -7.213,6.993c-1.337,1.91 -2.35,3.772 -3.012,5.541c-0.675,1.769 -0.956,3.197 -0.834,4.25c0.109,0.959 0.462,1.631 1.084,2.056c0.678,0.535 1.419,0.731 2.337,0.625c1.872,-0.212 4.075,-1.725 6.544,-4.494c2.55,-2.859 4.778,-6.434 6.616,-10.615l0.1,-0.228l0.209,-0.138c0.635,-0.415 1.175,-0.644 1.656,-0.7c0.641,-0.062 1.294,0.206 1.991,0.85l0.453,0.416l-0.256,0.556c-1.963,4.278 -2.794,7.878 -2.472,10.7c0.091,0.816 0.35,1.425 0.775,1.803c0.403,0.413 0.856,0.56 1.453,0.488c1.15,-0.132 3.447,-1.307 7.875,-6.163c2.51,-2.803 4.803,-5.625 6.813,-8.381l1.056,-1.559c1.241,-1.738 1.656,-2.054 2.128,-2.107c0.731,-0.081 1.306,0.382 1.397,1.16c0.044,0.393 0.091,0.8 -2.606,4.378c-2.175,2.965 -4.51,5.897 -6.932,8.709c-2.25,2.581 -4.284,4.569 -6.053,5.906c-1.9,1.457 -3.49,2.238 -4.859,2.391c-1.491,0.172 -2.794,-0.284 -3.844,-1.347c-1.031,-1.034 -1.653,-2.406 -1.847,-4.075c-0.059,-0.537 -0.084,-1.231 -0.072,-2.087c-4.709,5.956 -8.834,9.062 -12.59,9.49l-0.741,0.041Z" style="fill:#dca295;fill-rule:nonzero;"/><path d="M910.381,275.775l0.46,-0.087c1.325,-0.253 2.434,-0.978 3.334,-2.169c0.869,-1.153 1.188,-2.341 0.956,-3.563c-0.15,-0.781 -0.615,-1.362 -1.39,-1.74c-0.744,-0.385 -1.71,-0.466 -2.894,-0.238c-1.056,0.2 -2.241,0.728 -3.553,1.578c-1.256,0.804 -2.478,1.882 -3.659,3.235c-1.185,1.35 -2.154,2.734 -2.904,4.144c-0.896,1.756 -1.559,3.628 -1.99,5.609c-0.416,1.875 -0.481,3.559 -0.194,5.053c0.366,1.9 1.222,3.341 2.569,4.313c1.319,1.012 2.812,1.362 4.475,1.043c2.919,-0.556 6.35,-3.325 10.29,-8.303c2.216,-2.784 4.541,-6.256 6.985,-10.419l0.431,-0.771c0.297,-0.475 0.528,-0.732 0.7,-0.766c0.272,-0.053 0.438,0.075 0.494,0.381c0.053,0.272 -0.1,0.669 -0.456,1.194l-1.569,2.572c-2.916,4.819 -5.825,8.912 -8.738,12.287c-3.409,4.066 -6.728,6.41 -9.953,7.025c-1.256,0.244 -2.419,0.163 -3.475,-0.231c-1.062,-0.397 -1.915,-1.078 -2.556,-2.044c-0.706,-0.922 -1.197,-2.112 -1.478,-3.575c-0.4,-2.106 -0.228,-4.512 0.519,-7.225c0.693,-2.631 1.85,-5.231 3.471,-7.793c1.675,-2.466 3.475,-4.466 5.4,-5.997c1.979,-1.61 3.954,-2.607 5.922,-2.982c2.819,-0.54 4.438,0.279 4.853,2.45c0.344,1.8 -0.193,3.682 -1.612,5.644c-1.381,1.988 -3.038,3.166 -4.972,3.535c-0.444,0.087 -0.691,-0.007 -0.741,-0.279c-0.059,-0.306 0.366,-0.934 1.275,-1.881" style="fill:#dca295;fill-rule:nonzero;"/><path d="M912.464,267.024c0.622,0.043 1.178,0.193 1.666,0.447c0.628,0.306 1.116,0.743 1.441,1.287c-0.225,-0.984 -0.85,-1.966 -3.107,-1.734m-1.656,9.528l-0.287,0.315c0.384,-0.131 0.746,-0.3 1.093,-0.503l-0.615,0.15l-0.191,0.038Zm-12.756,5.231c-0.169,0.503 -0.319,1.006 -0.453,1.509c-0.71,2.582 -0.878,4.885 -0.503,6.854c0.253,1.328 0.696,2.409 1.318,3.218c0.575,0.869 1.278,1.435 2.182,1.769c0.906,0.341 1.925,0.406 3.021,0.194c2.069,-0.397 4.216,-1.588 6.413,-3.553c-1.506,1.087 -2.928,1.75 -4.278,2.009c-1.903,0.366 -3.635,-0.041 -5.15,-1.203c-1.5,-1.084 -2.478,-2.713 -2.881,-4.825c-0.307,-1.6 -0.241,-3.416 0.196,-5.394l0.135,-0.578Zm4.34,15.35c-0.834,0 -1.634,-0.141 -2.387,-0.422c-1.228,-0.456 -2.225,-1.253 -2.966,-2.369c-0.743,-0.971 -1.293,-2.293 -1.6,-3.878c-0.425,-2.228 -0.243,-4.787 0.532,-7.612c0.712,-2.694 1.915,-5.397 3.571,-8.019c1.732,-2.547 3.607,-4.628 5.591,-6.206c2.069,-1.685 4.188,-2.747 6.288,-3.15c4.396,-0.838 5.546,1.597 5.837,3.122c0.391,2.025 -0.203,4.143 -1.756,6.293c-1.494,2.154 -3.347,3.463 -5.497,3.872c-0.506,0.1 -0.909,0.041 -1.231,-0.178c-0.26,-0.178 -0.438,-0.453 -0.497,-0.775c-0.122,-0.644 0.284,-1.353 1.497,-2.619l0.184,-0.193l0.722,-0.141c1.122,-0.212 2.044,-0.816 2.822,-1.847c0.728,-0.962 0.99,-1.909 0.803,-2.9c-0.1,-0.512 -0.397,-0.875 -0.934,-1.137c-0.585,-0.303 -1.372,-0.357 -2.366,-0.166c-0.941,0.178 -2.034,0.669 -3.253,1.456c-1.191,0.763 -2.36,1.797 -3.481,3.082c-1.138,1.296 -2.079,2.637 -2.797,3.987c-0.85,1.669 -1.494,3.488 -1.91,5.388c-0.39,1.756 -0.453,3.343 -0.187,4.718c0.325,1.697 1.053,2.938 2.234,3.788c1.147,0.884 2.391,1.175 3.822,0.9c2.703,-0.516 5.997,-3.206 9.788,-8c2.168,-2.728 4.496,-6.2 6.918,-10.322l0.425,-0.756c0.469,-0.763 0.835,-1.097 1.272,-1.182c0.375,-0.065 0.725,0.004 1.003,0.216c0.25,0.191 0.41,0.472 0.482,0.834c0.1,0.51 -0.088,1.091 -0.591,1.829l-1.544,2.534c-2.928,4.841 -5.897,9.012 -8.819,12.397c-3.515,4.194 -7.025,6.653 -10.431,7.306c-0.528,0.1 -1.04,0.15 -1.544,0.15" style="fill:#dca295;fill-rule:nonzero;"/><path d="M925.335,277.715c0.538,-0.016 1.185,-0.138 1.947,-0.363c1.625,-0.481 3.203,-1.419 4.738,-2.812c1.556,-1.438 2.712,-2.95 3.462,-4.547c0.759,-1.703 0.963,-3.15 0.606,-4.347c-0.403,-1.356 -1.353,-1.813 -2.843,-1.372c-2.219,0.659 -4.282,3.003 -6.188,7.034c-0.784,1.603 -1.359,3.741 -1.722,6.407m-0.137,1.178c0.012,1.618 0.181,2.975 0.506,4.068c0.503,1.691 1.422,2.913 2.766,3.666c1.384,0.781 2.871,0.934 4.462,0.463c1.594,-0.472 3.175,-1.466 4.747,-2.979c1.509,-1.459 3.159,-3.625 4.937,-6.5c1.85,-3 3.622,-6.321 5.319,-9.962l0.794,-1.697c0.212,-0.497 0.337,-0.778 0.372,-0.841l0.087,-0.162c0.197,-0.419 0.4,-0.659 0.597,-0.719l0.516,0.281c0.072,0.232 -0.288,1.15 -1.075,2.754c-3.216,6.906 -6.206,12.25 -8.981,16.031c-3.032,4.109 -5.894,6.562 -8.579,7.359c-1.856,0.553 -3.565,0.375 -5.131,-0.528c-1.594,-0.862 -2.678,-2.272 -3.259,-4.228c-0.697,-2.35 -0.666,-5.156 0.097,-8.413c0.853,-3.571 2.312,-6.853 4.378,-9.85c2.081,-2.959 4.144,-4.746 6.2,-5.356c1.028,-0.306 1.89,-0.309 2.594,-0.012c0.703,0.297 1.184,0.89 1.45,1.787c0.462,1.556 0.234,3.338 -0.685,5.341c-0.944,2.05 -2.325,3.9 -4.137,5.559c-1.875,1.71 -3.822,2.866 -5.844,3.463c-0.331,0.1 -1.041,0.256 -2.131,0.475" style="fill:#dca295;fill-rule:nonzero;"/><path d="M934.242,263.272c1.3,-0 2.238,0.74 2.654,2.134c0.215,0.728 0.259,1.528 0.131,2.397c0.412,-1.3 0.465,-2.478 0.159,-3.506c-0.19,-0.65 -0.509,-1.06 -0.969,-1.253c-0.515,-0.219 -1.2,-0.203 -2.025,0.047l-0.693,0.256l0.743,-0.075Zm-0.003,1.681c-0.206,0 -0.453,0.041 -0.753,0.131c-1.969,0.585 -3.875,2.8 -5.669,6.585c-0.637,1.303 -1.131,3 -1.478,5.059l0.703,-0.184c1.497,-0.441 2.979,-1.325 4.41,-2.628c1.472,-1.357 2.572,-2.797 3.269,-4.282c0.662,-1.49 0.853,-2.756 0.559,-3.747c-0.169,-0.568 -0.422,-0.934 -1.041,-0.934m-9.309,10.172c-0.284,0.837 -0.528,1.691 -0.738,2.556c-0.725,3.091 -0.759,5.775 -0.109,7.981c0.519,1.747 1.453,2.966 2.853,3.725c1.391,0.8 2.856,0.95 4.491,0.463c1.84,-0.547 3.815,-1.984 5.897,-4.284c-1.366,1.137 -2.757,1.918 -4.15,2.331c-1.81,0.537 -3.532,0.359 -5.116,-0.535c-1.531,-0.859 -2.597,-2.259 -3.162,-4.159c-0.344,-1.166 -0.529,-2.612 -0.541,-4.303l-0.003,-0.697l0.069,-0.016l0.081,-0.584c0.119,-0.878 0.262,-1.706 0.428,-2.478m4.691,16.687c-1.232,0 -2.404,-0.318 -3.507,-0.956c-1.768,-0.956 -3,-2.547 -3.647,-4.715c-0.734,-2.491 -0.706,-5.466 0.088,-8.847c0.872,-3.663 2.387,-7.072 4.503,-10.135c2.219,-3.156 4.394,-5.015 6.653,-5.687c1.213,-0.363 2.275,-0.356 3.16,0.019c0.943,0.396 1.593,1.181 1.931,2.325c0.519,1.75 0.275,3.743 -0.722,5.934c-0.988,2.134 -2.447,4.097 -4.341,5.828c-1.956,1.788 -4.031,3.016 -6.168,3.65c-0.269,0.078 -0.772,0.197 -1.513,0.35c0.047,1.231 0.2,2.288 0.456,3.144c0.441,1.487 1.216,2.525 2.369,3.172c1.191,0.672 2.438,0.8 3.809,0.387c1.454,-0.431 2.935,-1.365 4.4,-2.775c1.466,-1.415 3.085,-3.55 4.807,-6.334c1.809,-2.935 3.584,-6.26 5.272,-9.878l0.793,-1.7c0.219,-0.503 0.35,-0.8 0.385,-0.869l0.115,-0.206c0.16,-0.344 0.491,-0.919 1.078,-1.094c0.725,-0.216 1.363,0.141 1.569,0.85c0.119,0.397 0.106,0.847 -1.128,3.362c-3.219,6.916 -6.269,12.357 -9.056,16.157c-3.178,4.306 -6.128,6.815 -9.019,7.672c-0.781,0.231 -1.544,0.346 -2.287,0.346" style="fill:#dca295;fill-rule:nonzero;"/><path d="M248.344,154.814l1.237,-1.284c1.253,-1.304 3.166,-2.957 5.669,-4.907c6.019,-4.453 12.109,-8.509 18.106,-12.062c11.538,-6.8 21.616,-11.181 29.96,-13.022c3.203,-0.706 5.821,-0.897 7.784,-0.566c2.506,0.447 2.778,1.675 2.866,2.082c0.418,1.896 -2.507,3.806 -5.035,5.075l-0.622,0.309l0.807,2.912l0.903,-0.421c2.825,-1.316 5.006,-2.863 6.487,-4.597c1.61,-1.907 2.244,-3.7 1.888,-5.332c-0.432,-1.94 -1.916,-3.181 -4.41,-3.684c-2.359,-0.481 -5.312,-0.334 -8.781,0.431c-14.212,3.138 -31,11.472 -49.894,24.766c-4.928,3.441 -5.99,4.441 -6.315,4.844c-0.766,0.793 -1.053,2.034 -0.857,3.687l0.207,1.769Z" style="fill:#81463e;fill-rule:nonzero;"/><path d="M301.358,164.724l0.309,-0.922c0.822,-2.019 0.838,-2.734 0.744,-3.166c-0.425,-1.915 -3.256,-1.287 -4.2,-1.081l-3.453,0.835c-3.028,0.668 -7.197,1.928 -12.391,3.743c-4.831,1.688 -9.416,3.55 -13.637,5.538l-7.325,3.578c1.25,-3.747 2.44,-7.091 3.543,-9.953c1.819,-4.685 3.644,-9.053 5.416,-12.978c2.166,-4.725 4.034,-8.544 5.55,-11.347l1.384,-2.503l-1.265,-0.132c-0.538,-0.056 -0.953,-0.046 -1.272,0.022c-0.978,0.216 -1.872,1.044 -2.731,2.535c-0.669,1.175 -1.735,3.45 -3.26,6.959l-3.781,8.953c-0.119,0.222 -0.381,0.81 -1.328,3.288c-0.219,0.531 -0.513,1.268 -0.881,2.215c-0.554,1.428 -0.907,2.35 -1.044,2.747c-1.4,3.66 -2.244,5.906 -2.538,6.741l-1.918,5.534c-0.347,0.206 -0.541,0.322 -0.507,0.325l-3.022,1.631c-1.215,0.657 -3.784,2.194 -7.64,4.569c-3.925,2.453 -7.494,4.841 -10.585,7.081l-1.437,1l0.169,4.091l2.562,-2c6.525,-4.897 12.978,-9.081 19.213,-12.456l-1.072,3.587c-1.497,4.932 -2.744,10.153 -3.71,15.528c-0.965,5.388 -1.643,11.088 -2.021,16.947c-0.772,11.472 -0.247,21.444 1.562,29.632c0.297,1.331 1.044,4.731 3.056,4.731l0.422,-0.05c0.631,-0.141 1.178,-0.563 1.603,-1.228l2.891,-4.166l1.025,-1.594l-0.241,-0.44c-1.559,-2.853 -2.737,-6.057 -3.503,-9.519c-1.356,-6.153 -1.981,-12.334 -1.859,-18.384c0.059,-6.157 0.809,-13.388 2.234,-21.5c1.069,-6.225 2.303,-11.516 3.672,-15.732c2.375,-1.256 5.278,-2.684 8.634,-4.234c2.557,-1.138 4.929,-2.163 7.104,-3.069c2.568,-1.04 4.753,-1.856 6.496,-2.428c1.797,-0.584 3.957,-1.156 6.419,-1.703c4.063,-0.894 8.094,-1.316 11.994,-1.238l0.619,0.013Z" style="fill:#81463e;fill-rule:nonzero;"/><path d="M427.155,206.044c-0.559,-0.403 -0.872,-0.909 -0.956,-1.556c-0.181,-1.362 0.241,-2.991 1.244,-4.831c1.056,-1.891 2.978,-4.147 5.709,-6.7c2.597,-2.406 6.263,-5.453 10.903,-9.06l7.881,-6.131c-1.362,3.538 -3.271,7.278 -5.69,11.153c-3.206,5.044 -6.403,9.203 -9.5,12.366c-3.203,3.231 -5.828,4.997 -7.803,5.256c-0.625,0.078 -1.21,-0.081 -1.788,-0.497m51.1,-60.803c-0.603,0.078 -1.053,0.628 -1.4,1.128c-2.5,3.985 -5.7,8.244 -9.509,12.666c-2.791,3.309 -5.328,6.037 -7.578,8.141l0.418,-1.282c1.019,-3.062 2.01,-7.622 2.941,-13.562c0.691,-4.619 0.834,-8.544 0.425,-11.669c-0.156,-1.203 -0.362,-2.272 -0.616,-3.172l-0.35,-1.259l-3.893,3.256l0.168,1.278c0.475,3.635 0.091,7.569 -1.146,11.694c-1.235,4.184 -2.985,7.791 -5.197,10.716c-2.216,2.881 -4.469,4.49 -6.697,4.784c-0.894,0.112 -1.66,-0.113 -2.372,-0.722c-0.722,-0.553 -1.141,-1.325 -1.275,-2.362c-0.5,-3.813 1.787,-10.022 6.8,-18.457l0.912,-1.534l-1.765,0.272c-1.969,0.303 -3.556,0.787 -4.716,1.444l-0.175,0.103l-0.112,0.168c-0.55,0.838 -1.066,1.691 -1.553,2.55c-0.429,0.204 -0.819,0.663 -1.269,1.513c-1.681,2.819 -3.163,5.184 -4.406,7.034c-7.141,10.741 -10.919,13.441 -12.832,13.816c-0.668,0.131 -1.225,-0.009 -1.75,-0.444c-0.568,-0.465 -0.928,-1.125 -1.103,-2.012c-0.24,-1.222 -0.328,-3.972 -0.262,-8.166c0.056,-2.894 -0.007,-4.756 -0.191,-5.697c-0.222,-1.15 -0.694,-1.972 -1.406,-2.45c-0.647,-0.437 -1.453,-0.562 -2.394,-0.378c-0.903,0.175 -2.097,0.747 -3.687,1.763c-1.716,1.206 -3.382,2.5 -4.944,3.85c-2.066,1.784 -4.028,3.615 -5.835,5.44c-2.009,2.019 -4.675,4.897 -7.918,8.547c-0.747,0.828 -1.219,1.309 -1.5,1.588c0.065,-0.6 0.293,-1.863 0.993,-4.51c1.041,-4.24 2.679,-9.334 4.869,-15.134l0.713,-1.891l-1.844,0.822c-1.991,0.888 -3.438,1.703 -4.431,2.494l-0.166,0.131l-0.081,0.191c-0.391,0.897 -0.76,1.834 -1.119,2.784c-0.366,0.256 -0.687,0.747 -1.041,1.556c-1.44,2.907 -2.734,5.378 -3.85,7.353c-6.281,11.263 -9.843,14.247 -11.721,14.769c-0.654,0.185 -1.219,0.085 -1.779,-0.306c-0.603,-0.419 -1.015,-1.05 -1.256,-1.922c-0.331,-1.203 -0.634,-3.934 -0.894,-8.122c-0.168,-2.89 -0.375,-4.744 -0.631,-5.665c-0.294,-1.054 -0.781,-1.81 -1.45,-2.247c-0.709,-0.463 -1.569,-0.553 -2.559,-0.278c-0.885,0.246 -2.035,0.909 -3.538,2.046c-1.631,1.344 -3.19,2.763 -4.631,4.219c-1.925,1.944 -3.741,3.919 -5.397,5.875c-1.862,2.194 -4.297,5.272 -7.234,9.138c-0.678,0.881 -1.113,1.4 -1.369,1.697c0.019,-0.607 0.147,-1.885 0.638,-4.572c0.712,-4.31 1.95,-9.516 3.684,-15.469l0.566,-1.938l-1.779,0.963c-1.909,1.034 -3.29,1.959 -4.221,2.828l-0.154,0.144l-0.068,0.197c-0.65,1.875 -1.216,3.875 -1.719,5.956c-0.216,0.375 -0.472,0.853 -0.775,1.475l-0.972,2.094c-1.859,3.684 -4.075,7.547 -6.575,11.465c-4.416,6.782 -7.003,8.672 -8.397,9.066c-0.769,0.216 -1.39,0.125 -2.003,-0.328c-0.622,-0.4 -1.081,-1.116 -1.369,-2.128c-0.95,-3.372 -0.653,-7.913 0.882,-13.491l0.159,-0.591l-0.509,-0.337c-0.925,-0.609 -1.716,-0.806 -2.416,-0.609c-0.538,0.15 -1.122,0.515 -1.784,1.121l-0.191,0.169l-0.063,0.244c-1.393,5.425 -3.384,10.191 -5.909,14.162c-2.459,3.866 -4.856,6.15 -7.116,6.788c-1.131,0.319 -2.118,0.228 -3.071,-0.306c-0.888,-0.413 -1.482,-1.191 -1.816,-2.382c-0.363,-1.287 -0.309,-3.09 0.166,-5.378c0.456,-2.287 1.315,-4.75 2.556,-7.322c1.712,-3.59 4.19,-6.925 7.365,-9.912c3.066,-2.938 6.154,-4.859 9.175,-5.709c2.025,-0.572 3.679,-0.663 4.888,-0.282c1.141,0.391 1.866,1.178 2.212,2.41c0.563,2 -0.325,4.234 -2.637,6.637l-0.472,0.491l1.338,1.975l0.709,-0.553c4.525,-3.519 6.294,-7.169 5.259,-10.853c-0.575,-2.035 -1.837,-3.366 -3.756,-3.957c-1.787,-0.553 -4.125,-0.428 -6.956,0.369c-2.735,0.772 -5.694,2.356 -8.8,4.713c-3.056,2.287 -5.878,5.093 -8.385,8.331c-1.909,2.412 -3.559,5.069 -4.896,7.897c-1.363,2.8 -2.304,5.59 -2.797,8.281c-0.535,2.678 -0.522,5.025 0.025,6.975c0.54,1.922 1.55,3.306 2.953,4.094c0.884,0.572 1.865,0.859 2.934,0.859c0.606,0 1.244,-0.094 1.903,-0.278c4.488,-1.266 8.9,-5.956 13.478,-14.328c0.175,1.287 0.369,2.303 0.572,3.037c0.547,1.932 1.544,3.428 2.957,4.45c1.428,1.041 3.021,1.322 4.746,0.841c1.591,-0.447 3.325,-1.691 5.304,-3.791c1.859,-1.947 3.915,-4.734 6.109,-8.284c1.466,-2.388 2.853,-4.825 4.2,-7.278c-0.563,4.409 -0.584,7.509 -0.05,9.425c0.297,1.081 0.706,1.737 1.281,2.062l0.791,0.213l0.462,-0.066c0.619,-0.172 1.307,-0.822 2.644,-3.437c2.919,-5.466 7.8,-11.91 14.513,-19.157c3.153,-3.481 4.684,-4.453 5.412,-4.656c0.35,-0.097 0.713,-0.197 0.981,0.763c0.078,0.293 0.188,0.875 0.238,1.968c0.119,2.947 0.262,5.466 0.428,7.475c0.066,0.91 0.278,2.016 0.631,3.288c0.485,1.741 1.356,3.041 2.6,3.862c1.285,0.85 2.716,1.063 4.26,0.632c2.465,-0.685 5.006,-2.578 7.762,-5.794c2.1,-2.475 4.334,-5.853 6.656,-10.034c-0.918,4.396 -1.184,7.515 -0.8,9.481c0.213,1.084 0.578,1.79 1.122,2.156c0.269,0.184 0.575,0.275 0.9,0.275l0.341,-0.034c0.628,-0.122 1.362,-0.722 2.894,-3.222c3.34,-5.228 8.706,-11.272 15.956,-17.972c3.412,-3.228 5.012,-4.078 5.753,-4.225l0.553,0.044c0.156,0.106 0.288,0.387 0.369,0.793c0.081,0.429 0.112,1.097 0.084,1.982c-0.109,2.893 -0.162,5.415 -0.156,7.484c-0.003,0.916 0.125,2.034 0.378,3.325c0.347,1.775 1.119,3.138 2.294,4.053c1.212,0.947 2.628,1.269 4.194,0.963c2.515,-0.494 5.193,-2.185 8.193,-5.175c2.338,-2.36 4.882,-5.641 7.582,-9.75c-0.194,1.384 -0.225,2.656 -0.079,3.79c0.282,2.144 1.185,3.838 2.669,5.016c1.522,1.3 3.325,1.828 5.369,1.559c4.047,-0.531 7.928,-3.718 11.584,-9.493c-0.078,0.343 -0.162,0.687 -0.247,1.025l-0.978,3.781c-0.618,2.531 -1.178,4.369 -1.668,5.472c-2.432,2.012 -3.366,2.725 -3.782,3.009c-0.3,0.247 -3.4,2.625 -9.203,7.066c-3.769,2.79 -6.515,4.878 -8.19,6.215c-3.004,2.578 -5.307,4.775 -6.847,6.532c-3.822,4.359 -5.535,8.281 -5.094,11.659c0.187,1.437 0.853,2.606 1.981,3.475c0.931,0.712 1.975,1.072 3.116,1.072l0.753,-0.05c3.316,-0.435 6.987,-2.628 10.919,-6.531c5.181,-5.263 9.753,-11.31 13.584,-17.969c2,-3.388 3.641,-6.628 4.878,-9.622l1.378,-3.291c0.125,-0.184 0.247,-0.415 0.391,-0.778l0.075,-0.303c3.381,-3.112 6.075,-5.716 8.016,-7.75c4.14,-4.506 7.506,-8.606 9.993,-12.187l3.697,-5.254c0.397,-0.512 0.566,-1.015 0.503,-1.5c-0.112,-0.837 -0.781,-1.315 -1.653,-1.206" style="fill:#81463e;fill-rule:nonzero;"/><path d="M571.79,99.98c3.381,-2.8 6.838,-5.36 10.278,-7.613c3.707,-2.478 7.325,-4.594 10.753,-6.281c3.525,-1.738 6.982,-3.172 10.272,-4.26c3.325,-1.087 6.257,-1.787 8.707,-2.087l0.475,-0.056l0.193,-0.438c0.275,-0.622 0.382,-0.922 0.435,-1.103c0.484,-1.025 0.728,-2.022 0.718,-2.966c-0.006,-0.731 -0.318,-2.421 -3.037,-2.421l-0.069,-0c-1.337,0.015 -3.681,0.746 -7.144,2.231c-5.087,2.069 -10.4,4.828 -15.784,8.2c-2.65,1.619 -5.397,3.484 -8.159,5.55c-2.763,2.059 -5.541,4.253 -8.257,6.509c-3.806,3.128 -7.471,6.556 -10.89,10.188c-3.231,3.393 -6.788,7.572 -10.56,12.412c-2.859,3.628 -5.821,7.75 -8.8,12.247c-2.712,4.041 -5.04,7.903 -6.925,11.478c-0.512,0.966 -0.975,1.825 -1.381,2.581c0.628,-5.64 0.919,-10.99 0.869,-15.956c-0.056,-5.562 -0.466,-10.897 -1.222,-15.859c-0.85,-5.156 -1.875,-9.256 -3.031,-12.16c-2.335,-6.337 -5.825,-9.531 -10.197,-9.481c-5.478,0.056 -11.819,4.238 -19.388,12.791l-0.356,0.4l1.306,3.019l0.879,-0.972c7.918,-8.763 12.078,-10.628 14.178,-10.65l0.034,-0c1.419,-0 2.784,0.881 4.066,2.618c1.4,1.904 2.656,4.788 3.737,8.579c0.95,3.337 1.738,7.359 2.335,11.956c0.603,4.747 0.931,9.184 0.971,13.184c0.135,13.294 -2.371,25.653 -7.453,36.735l-0.422,0.921l0.985,0.247c1.125,0.285 2.006,0.422 2.69,0.422l0.047,0c1.191,-0.012 2.203,-0.528 3.019,-1.537c0.625,-0.8 1.297,-2.432 2.081,-5.088c0.041,-0.253 0.269,-1.056 1.319,-3.637l0.809,-2.166c2.7,-6.856 6.188,-13.769 10.357,-20.537c4.547,-7.257 9.515,-14.079 14.765,-20.275c5.513,-6.469 11.166,-12.097 16.797,-16.725" style="fill:#81463e;fill-rule:nonzero;"/><path d="M788.34,167.071l0.462,0.266l0.759,-0.525c1.654,-1.247 3.982,-2.65 6.904,-4.166l2.371,-1.184l0.5,-0.256l1.263,-0.541l-1.056,-0.881c-0.703,-0.588 -1.45,-0.957 -2.216,-1.097c-1.694,-0.316 -3.834,0.447 -6.537,2.35c-3.066,2.265 -3.61,3.272 -3.735,3.959c-0.103,0.553 0.041,1.36 1.285,2.075" style="fill:#81463e;fill-rule:nonzero;"/><path d="M717.813,161.616c-0.225,1.287 -1.14,2.609 -2.712,3.915c-1.597,1.263 -3.606,2.257 -5.966,2.947c-2.3,0.657 -4.428,0.825 -6.34,0.491c-0.425,-0.072 -0.81,-0.156 -1.154,-0.253c1.563,-2.191 3.094,-3.869 4.563,-4.997c4.056,-3.209 7.397,-4.609 9.928,-4.175c1.644,0.284 1.859,1.034 1.681,2.072m-11.737,-43.072l0.106,0.009c0,0 0.075,0.135 0.006,0.56c-0.175,1.053 -1.072,3.303 -4.372,8.037c-2.878,4.116 -6.368,8.535 -10.375,13.128c-4.19,4.753 -7.984,8.794 -11.321,12.057c0.793,-1.722 1.771,-3.691 2.925,-5.891c1.959,-3.703 4.165,-7.378 6.562,-10.922c2.622,-3.922 4.878,-6.909 6.719,-8.884c2.415,-2.716 4.512,-4.775 6.231,-6.122c2.281,-1.766 3.188,-1.972 3.519,-1.972m112.206,61.369c-0.241,1.284 -1.178,2.59 -2.766,3.875c-1.612,1.237 -3.637,2.2 -6.012,2.859c-2.309,0.622 -4.441,0.756 -6.347,0.4c-0.419,-0.081 -0.806,-0.169 -1.147,-0.269c1.597,-2.172 3.153,-3.828 4.638,-4.934c4.1,-3.147 7.468,-4.503 9.984,-4.028c1.641,0.309 1.847,1.062 1.65,2.097m46.638,-33.325c0.184,0.353 0.234,0.784 0.156,1.318c-0.297,1.96 -1.916,5.2 -4.825,9.635c-0.947,1.481 -2.228,3.322 -3.791,5.456c-1.259,1.631 -3.065,3.822 -5.515,6.688c-2.566,2.865 -4.747,5.225 -6.482,7.025c-1.347,1.425 -2.622,2.696 -3.806,3.806c0.463,-1.235 0.941,-2.406 1.434,-3.51c1.01,-2.281 2.097,-4.537 3.225,-6.703c1.707,-3.215 3.01,-5.597 3.857,-7.068c3.234,-5.294 6.325,-9.572 9.187,-12.713c3.5,-3.803 5.125,-4.331 5.756,-4.331l0.141,0.012c0.506,0.075 0.613,0.285 0.663,0.385m20.85,42.506c-0.107,1.306 -0.9,2.703 -2.344,4.144c-1.475,1.4 -3.388,2.572 -5.678,3.475c-2.235,0.862 -4.344,1.212 -6.272,1.062c-0.428,-0.034 -0.816,-0.084 -1.169,-0.147c1.363,-2.325 2.734,-4.134 4.094,-5.39c3.747,-3.56 6.912,-5.272 9.509,-5.057c0.725,0.06 1.241,0.247 1.531,0.557c0.272,0.29 0.379,0.734 0.329,1.356m17.146,3.656c-0.678,-0.065 -1.259,0.422 -1.646,0.785l0.581,0.612l-0.719,-0.494c-0.072,0.06 -0.359,0.341 -0.831,0.825l-1.656,1.585c-3.5,3.362 -6.994,6.375 -10.382,8.943c-3.225,2.438 -6.025,4.16 -8.318,5.125c-2.319,0.972 -4.45,1.388 -6.322,1.238c-1.803,-0.147 -3.21,-0.866 -4.303,-2.191c-1.063,-1.29 -1.504,-2.859 -1.347,-4.8c0.093,-1.14 0.406,-2.475 0.931,-3.978c0.969,0.166 1.647,0.263 2.019,0.294c2.7,0.225 5.572,-0.263 8.559,-1.428c2.894,-1.122 5.4,-2.697 7.453,-4.688c2.075,-2.015 3.216,-4.143 3.391,-6.325c0.112,-1.393 -0.263,-2.518 -1.119,-3.35c-0.809,-0.784 -1.978,-1.243 -3.478,-1.362c-2.784,-0.231 -6.144,0.953 -9.972,3.512c-1.837,1.25 -3.544,2.66 -5.119,4.216c-0.49,0.062 -1.056,0.394 -1.803,1.066c-2.097,1.881 -4.772,4.031 -7.959,6.39c-8.406,6.441 -14.741,9.388 -18.835,8.791c-2.053,-0.306 -3.453,-1.744 -4.281,-4.385c-0.847,-2.775 -0.903,-6.69 -0.169,-11.643c0.31,-2.063 0.71,-3.844 1.191,-5.297l4.025,-3.831c0.091,-0.069 0.194,-0.147 3.856,-3.819c2.816,-2.828 5.272,-5.478 7.297,-7.872c9.197,-10.756 14.019,-18.359 14.747,-23.247c0.197,-1.306 0.047,-2.428 -0.472,-3.384c-0.584,-0.919 -1.409,-1.466 -2.45,-1.619c-1.994,-0.294 -4.29,0.737 -7.025,3.169c-5.509,4.903 -11.562,13.072 -17.987,24.275c-3.103,5.384 -5.475,10.668 -7.097,15.793l-0.444,0.297l0.256,0.338l-0.025,0.09l-0.381,-0.325c-0.078,0.054 -0.394,0.304 -0.912,0.735l-1.813,1.4c-3.834,2.978 -7.625,5.606 -11.262,7.806c-3.466,2.088 -6.429,3.506 -8.81,4.225c-2.409,0.722 -4.565,0.913 -6.422,0.566c-1.772,-0.335 -3.1,-1.194 -4.05,-2.628c-0.918,-1.394 -1.19,-3 -0.831,-4.916c0.209,-1.122 0.663,-2.419 1.341,-3.856c0.956,0.265 1.606,0.431 1.978,0.503c2.65,0.497 5.565,0.322 8.662,-0.522c2.994,-0.813 5.653,-2.119 7.903,-3.881c2.275,-1.788 3.635,-3.785 4.038,-5.932c0.256,-1.375 0.003,-2.534 -0.763,-3.45c-0.721,-0.865 -1.84,-1.443 -3.315,-1.721c-2.756,-0.519 -6.213,0.306 -10.288,2.446c-1.778,0.954 -3.447,2.066 -5.034,3.294c-0.463,0.163 -1.134,0.591 -2.353,1.528c-3.11,2.394 -6.553,4.725 -10.238,6.938c-3.415,2.069 -6.562,3.622 -9.359,4.622c-2.566,0.943 -4.544,1.287 -5.878,1.053c-0.963,-0.181 -1.797,-0.644 -1.394,-2.819c0.372,-2.034 1.428,-4.35 3.131,-6.881c1.688,-2.51 4.475,-5.86 8.272,-9.938l1.947,-2.006l-1.634,-0.234c-1.169,-0.172 -2.697,-0.147 -4.675,0.072l-0.291,0.034l-0.209,0.203c-1.113,1.094 -2.135,2.169 -3.063,3.209c-2.312,1.747 -4.497,2.463 -6.519,2.1c-1.446,-0.262 -2.65,-1.031 -3.665,-2.35c0.69,-1.759 1.175,-3.39 1.437,-4.859c0.275,-1.531 0.313,-2.781 0.116,-3.819c-0.284,-1.6 -1.275,-2.009 -1.838,-2.112c-0.596,-0.1 -1.465,0.028 -2.321,1.294c-0.541,0.9 -0.922,1.953 -1.135,3.128c-0.34,1.903 -0.212,4.09 0.385,6.506c-1.391,2.678 -3.11,5.137 -5.119,7.322c-1.903,2.097 -4.003,3.772 -6.235,4.975c-2.046,1.09 -3.875,1.506 -5.421,1.225c-1.21,-0.216 -2.085,-0.985 -2.66,-2.341c-0.597,-1.415 -0.7,-3.228 -0.312,-5.384c0.159,-0.881 0.259,-1.341 0.322,-1.581l0.725,-0.775c3.459,-3.513 5.29,-6.038 5.59,-7.722c0.122,-0.672 0.028,-1.241 -0.284,-1.688c-0.3,-0.434 -0.775,-0.712 -1.406,-0.825c-1.213,-0.219 -2.6,0.472 -4.257,2.135c-1.15,1.212 -2.093,2.446 -2.806,3.662c-0.709,1.213 -1.462,2.869 -2.322,5.128l-0.109,0.369c-1.569,1.741 -3.497,3.187 -5.725,4.3c-2.272,1.106 -4.075,1.55 -5.335,1.322c-0.725,-0.128 -1.237,-0.475 -1.64,-1.138c-0.416,-0.597 -0.55,-1.265 -0.41,-2.043c0.457,-2.544 2.072,-5.491 4.807,-8.76c2.847,-3.406 6.715,-6.95 11.497,-10.525l1.7,-1.272l-2.11,-0.24c-2.047,-0.235 -3.747,-0.241 -5.059,-0.025l-0.213,0.037l-0.753,0.591c-4.256,3.181 -7.737,6.5 -10.334,9.859l-0.222,0.294c-2.466,1.831 -4.903,3.512 -7.272,4.997c-3.431,2.134 -6.372,3.597 -8.747,4.347c-2.4,0.759 -4.55,0.984 -6.409,0.662c-1.781,-0.309 -3.119,-1.15 -4.088,-2.572c-0.94,-1.378 -1.237,-2.981 -0.903,-4.9c0.194,-1.125 0.625,-2.428 1.285,-3.875c0.968,0.257 1.621,0.41 1.984,0.472c2.656,0.463 5.569,0.244 8.653,-0.647c2.984,-0.856 5.622,-2.2 7.844,-3.997c2.25,-1.818 3.578,-3.834 3.953,-5.99c0.237,-1.375 -0.034,-2.531 -0.813,-3.438c-0.734,-0.853 -1.859,-1.415 -3.34,-1.672c-2.766,-0.478 -6.206,0.394 -10.25,2.597c-2.156,1.197 -4.16,2.616 -6.022,4.216l-0.503,0.381l-0.581,0.419l-0.172,0.159l-0.207,0.166l-0.478,0.403c-10.822,8.619 -18.362,12.653 -22.45,11.994c-2.559,-0.419 -3.403,-3.422 -2.509,-8.931c0.275,-1.675 0.997,-4.335 2.147,-7.913l3.972,-3.875c2.231,-2.156 4.84,-4.856 7.753,-8.022c3.578,-3.862 6.259,-6.878 7.965,-8.95c3.775,-4.487 6.835,-8.584 9.104,-12.184c2.293,-3.75 3.581,-6.628 3.934,-8.8c0.397,-2.444 -1.147,-2.969 -1.831,-3.081c-1.71,-0.275 -4.047,0.796 -7.394,3.365c-3.063,2.316 -6.225,5.441 -9.4,9.288c-3.519,4.231 -7.013,9.122 -10.378,14.531c-3.535,5.65 -6.106,10.466 -7.638,14.306l-1.475,3.588l-0.328,0.725c-3.05,2.615 -6.209,4.959 -9.397,6.968c-4.618,2.9 -8.053,4.191 -10.209,3.841c-1.022,-0.166 -1.709,-0.556 -2.091,-1.194c-0.406,-0.675 -0.506,-1.672 -0.297,-2.962c0.391,-2.394 2.11,-5.075 5.1,-7.963c1.46,-1.368 3.004,-2.515 4.604,-3.418c1.675,-0.997 3.271,-1.688 4.75,-2.054c1.625,-0.415 2.993,-0.534 4.084,-0.356c0.431,0.072 1.184,0.369 2.328,1.4l0.497,0.444l3.478,-2.409l-0.841,-0.71c-1.24,-1.05 -2.662,-1.712 -4.228,-1.965c-3.003,-0.491 -6.709,0.387 -11.34,2.684c-0.428,0.212 -0.828,0.466 -1.244,0.697c-0.513,-0 -1.053,0.303 -1.825,1.028l-0.369,0.312c-1.678,1.125 -3.228,2.4 -4.65,3.822c-0.497,0.394 -0.969,0.763 -1.419,1.103c-10.221,7.869 -14.678,9.21 -16.6,8.944c-0.675,-0.09 -1.156,-0.403 -1.512,-0.984c-0.388,-0.625 -0.519,-1.363 -0.397,-2.263c0.169,-1.228 0.969,-3.856 2.384,-7.809c0.985,-2.719 1.525,-4.506 1.657,-5.456c0.147,-1.085 -0.003,-1.972 -0.447,-2.641c-0.466,-0.7 -1.219,-1.125 -2.241,-1.262c-0.912,-0.122 -2.228,0.031 -4.056,0.481c-2.025,0.59 -4.016,1.281 -5.919,2.05c-2.534,1.025 -4.984,2.125 -7.281,3.269c-2.553,1.271 -6.006,3.134 -10.253,5.54c-0.966,0.541 -1.569,0.844 -1.922,1.016c0.256,-0.544 0.878,-1.672 2.387,-3.944c2.354,-3.681 5.544,-7.975 9.488,-12.759l1.281,-1.56l-2.009,0.185c-2.166,0.197 -3.8,0.5 -4.997,0.931l-0.197,0.069l-0.144,0.156c-0.7,0.772 -1.393,1.584 -2.081,2.422c-0.459,0.044 -1.097,0.453 -2.691,2.022l-1.606,1.659c-2.981,2.872 -6.344,5.788 -9.987,8.659c-6.403,4.947 -9.475,5.866 -10.91,5.794c-0.8,-0.05 -1.356,-0.344 -1.784,-0.969c-0.456,-0.584 -0.656,-1.412 -0.594,-2.459c0.216,-3.497 1.991,-7.687 5.275,-12.453l0.35,-0.503l-0.372,-0.488c-0.672,-0.878 -1.353,-1.325 -2.081,-1.368c-0.553,-0.038 -1.228,0.118 -2.053,0.471l-0.234,0.097l-0.138,0.21c-3.109,4.665 -6.556,8.509 -10.247,11.425c-3.6,2.84 -6.594,4.193 -8.959,4.065c-1.169,-0.072 -2.072,-0.481 -2.8,-1.3c-0.697,-0.684 -1.003,-1.612 -0.928,-2.847c0.081,-1.331 0.728,-3.018 1.928,-5.021c1.187,-2.013 2.809,-4.057 4.828,-6.075c2.8,-2.825 6.234,-5.157 10.219,-6.935c3.859,-1.762 7.39,-2.556 10.543,-2.369c2.097,0.129 3.688,0.588 4.71,1.347c0.947,0.744 1.369,1.725 1.29,3.003c-0.125,2.072 -1.7,3.891 -4.675,5.4l-0.609,0.307l0.616,2.306l0.853,-0.288c5.431,-1.834 8.306,-4.7 8.537,-8.515c0.132,-2.106 -0.625,-3.781 -2.24,-4.975c-1.528,-1.125 -3.716,-1.76 -6.691,-1.941c-2.841,-0.169 -6.153,0.35 -9.859,1.55c-3.641,1.153 -7.232,2.872 -10.666,5.106c-2.594,1.644 -5.025,3.613 -7.222,5.841c-2.209,2.2 -4.019,4.522 -5.369,6.897c-1.384,2.356 -2.15,4.575 -2.271,6.594c-0.122,1.997 0.371,3.637 1.437,4.84c1.016,1.303 2.491,2.025 4.378,2.141c4.606,0.278 10.366,-2.691 17.441,-9.084c-0.256,1.271 -0.406,2.281 -0.456,3.053c-0.122,2 0.325,3.743 1.325,5.175c1.009,1.456 2.421,2.247 4.203,2.356l0.359,0.012c1.584,0 3.522,-0.606 5.9,-1.843c2.403,-1.232 5.259,-3.185 8.497,-5.81c1.941,-1.581 3.834,-3.218 5.697,-4.878c-2.45,4.088 -3.797,7.097 -4.075,9.15c-0.328,2.422 0.778,2.941 1.462,3.035c0.644,0.078 1.528,-0.247 3.785,-2.119c4.843,-3.872 11.872,-7.866 20.893,-11.872c4.275,-1.956 6.072,-2.244 6.81,-2.144c0.359,0.05 0.734,0.1 0.6,1.088c-0.06,0.434 -0.247,1.078 -0.556,1.903c-1.079,2.822 -1.919,5.125 -2.56,7.037c-0.297,0.866 -0.537,1.966 -0.715,3.269c-0.244,1.794 0.046,3.334 0.865,4.575c0.844,1.288 2.075,2.047 3.663,2.263c0.387,0.053 0.79,0.078 1.209,0.078c2.288,-0 5.041,-0.782 8.209,-2.338c1.91,-0.95 4.022,-2.234 6.316,-3.825c-0.328,0.85 -0.572,1.688 -0.706,2.51c-0.3,1.831 -0.025,3.409 0.797,4.668c0.809,1.31 2.143,2.122 3.978,2.419c2.753,0.45 5.825,-0.162 9.131,-1.812c3.206,-1.532 7.256,-4.238 12.053,-8.05c-0.262,1.021 -0.456,1.937 -0.587,2.728c-0.553,3.406 -0.372,6.165 0.537,8.19c0.96,2.207 2.588,3.51 4.841,3.878c0.49,0.082 0.997,0.119 1.522,0.119c1.543,0 3.225,-0.344 5.028,-1.031c2.237,-0.859 5.153,-2.428 8.665,-4.663c1.516,-0.959 3.06,-2 4.616,-3.078c-0.762,1.535 -1.281,3.053 -1.541,4.541c-0.459,2.675 0.016,5.037 1.407,7.006c1.353,2.035 3.334,3.288 5.893,3.731c0.629,0.11 1.291,0.163 1.982,0.163c3.243,-0 7.175,-1.206 11.94,-3.653c2.507,-1.3 5.303,-3.003 8.357,-5.085c-0.46,1.122 -0.794,2.213 -0.985,3.269c-0.312,1.741 -0.028,3.347 0.838,4.772c0.853,1.416 2.15,2.288 3.85,2.594c1.975,0.353 4.206,0.037 6.628,-0.947c1.89,-0.813 4.125,-2.153 6.659,-3.994c0.006,4.822 1.935,7.606 5.75,8.294c0.553,0.1 1.122,0.15 1.7,0.15c1.766,-0 3.638,-0.463 5.594,-1.388c2.466,-1.19 5.034,-3.068 7.644,-5.593c2.247,-2.263 4.268,-4.813 6.012,-7.591c1.316,1.234 2.856,2.016 4.597,2.328c0.981,0.178 1.988,0.16 3,0.006c-3.034,4.05 -4.878,7.669 -5.45,10.772c-0.309,1.66 -0.072,3.135 0.691,4.363c0.747,1.275 1.965,2.078 3.625,2.381c0.447,0.084 0.928,0.125 1.447,0.125c1.543,0 3.412,-0.366 5.665,-1.112c2.969,-1.016 6.316,-2.575 9.95,-4.635c1.675,-0.962 3.544,-2.125 5.569,-3.459c-1.059,1.837 -1.775,3.653 -2.109,5.431c-0.504,2.669 -0.06,5.041 1.3,7.028c1.321,2.053 3.287,3.335 5.837,3.816c0.691,0.131 1.413,0.194 2.175,0.194c3.206,-0 7.094,-1.147 11.8,-3.482c5.003,-2.503 11.153,-6.565 18.266,-12.05c-0.332,1.422 -0.622,2.835 -0.828,4.225c-0.744,4.985 -0.485,9.013 0.771,11.963c1.313,3.147 3.591,4.984 6.775,5.459c0.566,0.085 1.15,0.125 1.754,0.125c3.006,0 6.456,-1.044 10.29,-3.115c3.444,-1.86 7.806,-4.866 12.997,-8.944c-1.122,2.259 -1.784,4.447 -1.95,6.531c-0.219,2.709 0.469,5.019 2.028,6.85c1.531,1.903 3.619,2.972 6.206,3.181c0.291,0.025 0.585,0.038 0.885,0.038c3.462,-0 7.615,-1.569 12.665,-4.772c4.85,-3.097 10.716,-7.947 17.429,-14.397c2.45,-2.262 2.671,-2.778 2.709,-3.219c0.062,-0.8 -0.434,-1.384 -1.238,-1.453" style="fill:#81463e;fill-rule:nonzero;"/></g><defs><linearGradient id="_Linear1" x1="0" y1="0" x2="1" y2="0" gradientUnits="userSpaceOnUse" gradientTransform="matrix(891.263,0,0,891.263,69.7244,239.792)"><stop offset="0" style="stop-color:#81463e;stop-opacity:1"/><stop offset="0.03" style="stop-color:#81463e;stop-opacity:1"/><stop offset="1" style="stop-color:#dca295;stop-opacity:1"/></linearGradient><linearGradient id="_Linear2" x1="0" y1="0" x2="1" y2="0" gradientUnits="userSpaceOnUse" gradientTransform="matrix(891.263,0,0,891.263,69.7244,223.125)"><stop offset="0" style="stop-color:#81463e;stop-opacity:1"/><stop offset="0.03" style="stop-color:#81463e;stop-opacity:1"/><stop offset="1" style="stop-color:#dca295;stop-opacity:1"/></linearGradient><linearGradient id="_Linear3" x1="0" y1="0" x2="1" y2="0" gradientUnits="userSpaceOnUse" gradientTransform="matrix(891.263,0,0,891.263,69.7244,209.106)"><stop offset="0" style="stop-color:#81463e;stop-opacity:1"/><stop offset="0.03" style="stop-color:#81463e;stop-opacity:1"/><stop offset="1" style="stop-color:#dca295;stop-opacity:1"/></linearGradient></defs></svg>